<svg width="284" height="284" viewBox="0 0 284 284" fill="none" xmlns="http://www.w3.org/2000/svg">
<path d="M212.642 125.208C213.868 125.811 215.21 126.141 216.576 126.173C216.653 126.164 216.727 126.14 216.794 126.103C216.861 126.065 216.921 126.014 216.968 125.953C217.016 125.893 217.051 125.823 217.071 125.749C217.092 125.674 217.097 125.596 217.087 125.52C216.973 124.625 215.965 125.392 213.168 124.1L213.31 123.049C213.381 122.751 213.026 122.268 212.642 122.41C212.259 122.552 212.16 123.007 212.046 123.83C211.932 124.654 211.876 124.824 212.642 125.208ZM64.4229 129.24C66.1316 128.776 67.7364 127.99 69.1515 126.926C69.7053 126.5 69.5207 125.506 69.3645 124.938C69.32 124.79 69.2227 124.665 69.0912 124.585C68.9598 124.505 68.8034 124.476 68.6521 124.504C68.5007 124.532 68.3651 124.615 68.2712 124.737C68.1774 124.859 68.1318 125.011 68.1433 125.165C68.1703 125.473 68.2273 125.777 68.3137 126.074C64.9483 128.53 63.6419 127.92 63.8407 128.914C63.8848 129.027 63.967 129.122 64.0732 129.181C64.1794 129.241 64.303 129.262 64.4229 129.24ZM60.5605 126.613C63.4005 126.613 62.4349 124.938 61.6681 125.193L60.5747 125.364C59.6375 120.919 60.3901 119.982 59.5807 119.954C59.4586 119.946 59.3383 119.986 59.2455 120.065C59.1526 120.145 59.0945 120.258 59.0837 120.38C58.9834 122.135 59.1123 123.897 59.4671 125.619C59.6233 126.386 59.9073 126.613 60.5605 126.613ZM143.02 124.171C143.829 124.171 148.089 123.248 148.813 123.134C149.878 122.95 151.142 122.623 151.227 121.473C151.227 120.763 150.716 119.939 150.134 120.365C150.013 120.45 149.924 120.573 149.88 120.715C149.836 120.856 149.841 121.008 149.893 121.146C150.106 121.7 149.651 121.658 142.793 123.149C142.667 123.187 142.56 123.272 142.494 123.387C142.427 123.501 142.406 123.636 142.435 123.764C142.464 123.893 142.54 124.007 142.648 124.082C142.756 124.157 142.889 124.189 143.02 124.171ZM49.6265 89.4093C49.9389 89.7643 50.7057 89.4093 50.4785 88.8697C49.0585 85.4049 46.4457 81.5425 44.7985 77.7369C44.5429 77.1263 44.0317 76.0897 43.5347 76.0329C43.4724 76.0242 43.409 76.0328 43.3514 76.0579C43.2937 76.0829 43.2441 76.1234 43.2081 76.1749C42.8957 76.6009 43.3501 77.7795 43.5631 78.2765C44.2163 79.6823 47.3829 86.8391 49.6265 89.4093ZM95.6629 83.4169C95.6895 83.5278 95.7447 83.6297 95.8229 83.7127C95.9011 83.7956 95.9997 83.8566 96.1088 83.8897C96.218 83.9227 96.3338 83.9266 96.4449 83.9009C96.556 83.8753 96.6585 83.821 96.7421 83.7435C97.9145 82.676 98.9798 81.4965 99.9229 80.2219C104.183 93.8539 104.183 94.3367 104.85 94.3367C104.946 94.334 105.04 94.3108 105.126 94.2686C105.212 94.2264 105.288 94.1663 105.348 94.0922C105.409 94.0181 105.453 93.9319 105.477 93.8393C105.501 93.7467 105.506 93.65 105.489 93.5557C103.899 88.5289 102.223 83.6157 100.775 78.6031C100.742 78.4785 100.674 78.3663 100.578 78.2806C100.482 78.1948 100.363 78.1394 100.235 78.1212C100.108 78.103 99.9777 78.1228 99.8615 78.1782C99.7453 78.2337 99.6481 78.3222 99.5821 78.4327C98.7667 79.7153 97.8144 80.9056 96.7421 81.9827C95.8901 78.0919 93.9021 69.2027 93.9021 69.2027C93.8663 69.0596 93.7751 68.9366 93.6487 68.8607C93.5222 68.7848 93.3707 68.7622 93.2276 68.798C93.0845 68.8338 92.9614 68.925 92.8855 69.0514C92.8096 69.1779 92.7871 69.3294 92.8229 69.4725C93.3057 71.6735 95.3647 82.4371 95.6629 83.4169ZM21.6951 157.285C17.1227 155.099 13.0473 152.855 8.36128 150.384C7.45248 149.901 6.82768 151.563 8.24768 151.946C12.3389 154.5 16.7015 156.591 21.2549 158.18C21.8229 158.336 22.2205 157.598 21.6951 157.285ZM25.3303 124.498C25.4279 124.584 25.5496 124.638 25.679 124.654C25.8085 124.669 25.9395 124.644 26.0545 124.583C26.9917 124.128 25.7847 123.007 26.2391 116.262C37.7553 130.163 37.1163 129.808 37.5991 129.808C37.699 129.815 37.7987 129.792 37.8863 129.744C37.974 129.695 38.0459 129.622 38.0936 129.534C38.1414 129.446 38.163 129.347 38.1559 129.247C38.1488 129.147 38.1132 129.051 38.0535 128.971C36.2501 126.699 28.3549 116.886 26.2533 114.217C26.1742 114.117 26.0682 114.041 25.9476 113.999C25.8271 113.958 25.6971 113.951 25.5731 113.981C25.449 114.011 25.3362 114.076 25.2479 114.168C25.1595 114.26 25.0994 114.376 25.0747 114.501C24.786 117.094 24.7385 119.709 24.9327 122.311C20.6727 118.491 16.5973 114.444 12.2947 110.724C12.1644 110.619 12.0015 110.564 11.8345 110.567C11.6675 110.571 11.5072 110.634 11.3817 110.744C11.2563 110.854 11.1737 111.005 11.1484 111.17C11.1232 111.335 11.157 111.504 11.2439 111.647C12.9195 114.245 22.3767 121.814 25.3303 124.498ZM137.34 71.8297C137.34 71.9691 137.395 72.1027 137.494 72.2012C137.592 72.2998 137.726 72.3551 137.865 72.3551C138.005 72.3551 138.138 72.2998 138.237 72.2012C138.335 72.1027 138.391 71.9691 138.391 71.8297C138.634 66.614 138.416 61.3869 137.737 56.2097C137.723 56.0731 137.669 55.9437 137.582 55.8371C137.496 55.7305 137.38 55.6514 137.249 55.6093C137.118 55.5672 136.978 55.564 136.845 55.6C136.713 55.636 136.594 55.7097 136.502 55.8121C135.863 56.6357 137.397 59.2343 137.34 71.8297ZM175.765 96.4951C186.571 78.2623 185.989 79.1711 185.904 78.8445C185.662 78.0209 184.981 78.4185 179.514 80.0657C180.934 75.0247 182.709 69.6429 183.887 64.5451C183.912 64.3803 183.874 64.2122 183.781 64.074C183.688 63.9359 183.546 63.8375 183.384 63.7983C183.222 63.7592 183.051 63.782 182.905 63.8624C182.759 63.9428 182.649 64.0749 182.595 64.2327C180.991 69.9127 179.4 75.4649 177.867 80.9177C177.842 81.0304 177.846 81.1476 177.879 81.2582C177.912 81.3688 177.972 81.4693 178.055 81.5502C178.137 81.6311 178.238 81.6897 178.35 81.7207C178.461 81.7516 178.578 81.7538 178.69 81.7271C178.69 81.7271 182.453 80.5627 183.973 80.0657L174.899 96.0123C174.845 96.1262 174.837 96.2563 174.875 96.3761C174.914 96.496 174.997 96.5968 175.107 96.6581C175.217 96.7194 175.346 96.7367 175.468 96.7064C175.59 96.6762 175.696 96.6006 175.765 96.4951ZM277.295 138.144C276.557 137.789 262.896 146.28 262.754 146.38C262.257 146.735 262.754 147.615 263.265 147.345C264.089 146.976 277.139 139.72 277.579 138.939C277.613 138.868 277.632 138.791 277.636 138.713C277.64 138.635 277.628 138.556 277.602 138.482C277.576 138.409 277.535 138.341 277.482 138.282C277.43 138.224 277.366 138.177 277.295 138.144ZM241.142 121.913C241.142 121.913 254.831 111.476 257.387 109.488C257.94 109.048 257.387 108.068 256.733 108.139C254.157 108.201 251.591 108.49 249.065 109.005C252.731 105.095 255.977 100.812 258.75 96.2253C259.219 95.4585 258.082 94.6633 257.628 95.4443C254.5 100.548 250.777 105.262 246.538 109.488C246.083 109.928 246.367 111.008 247.106 110.908C249.612 110.27 252.168 109.842 254.745 109.63C254.745 109.63 243.897 118.363 240.545 121.132C240.489 121.223 240.462 121.328 240.467 121.435C240.472 121.541 240.509 121.644 240.574 121.729C240.639 121.813 240.728 121.876 240.829 121.909C240.931 121.942 241.04 121.944 241.142 121.913ZM221.56 80.8041C230.279 65.7805 231.798 63.5937 230.336 63.2245C229.711 63.0683 229.739 63.1251 220.58 80.2645C220.537 80.3909 220.54 80.5283 220.588 80.6527C220.637 80.7771 220.727 80.8806 220.844 80.945C220.961 81.0094 221.097 81.0305 221.228 81.0048C221.359 80.979 221.476 80.908 221.56 80.8041Z" fill="#9747FF"/>
<path d="M261.803 173.488C256.009 155.212 241.369 141.154 221.603 134.935C221.589 134.573 221.551 134.212 221.489 133.855C226.885 131.498 228.092 123.39 226.899 116.333C227.936 114.643 230.691 105.952 228.66 107.145L224.954 109.332C224.428 107.912 223.818 106.591 223.165 105.285C223.307 103.013 221.233 98.9518 217.584 96.2964C214.233 93.854 208.468 91.6672 200.061 95.1604C193.501 97.8868 186.103 103.908 184.981 112.655C183.561 124.015 187.324 129.524 180.295 140.075C172.528 136.558 164.249 134.305 155.771 133.401C155.772 132.765 155.729 132.129 155.644 131.498C159.265 129.666 160.031 123.702 160.188 121.757C164.448 118.065 164.945 110.709 161.608 110.539C162.465 105.269 162.794 99.9273 162.587 94.5924C162.403 91.2838 160.983 90.5454 160.33 90.4034C159.869 90.3162 159.393 90.3606 158.956 90.5313C158.519 90.7021 158.139 90.9924 157.859 91.369C156.794 89.1964 154.749 89.4662 153.599 91.1134C153.486 90.5288 153.192 89.9944 152.759 89.5859C152.326 89.1774 151.775 88.9154 151.185 88.8369C150.595 88.7584 149.995 88.8674 149.47 89.1485C148.945 89.4296 148.521 89.8686 148.26 90.4034C147.984 89.8172 147.541 89.326 146.986 88.9924C146.431 88.6587 145.789 88.4977 145.142 88.5296C144.495 88.5616 143.873 88.7851 143.353 89.1719C142.834 89.5586 142.441 90.0911 142.225 90.7016C140.805 87.6202 137.184 88.3302 136.374 91.4542C135.309 89.0544 132.398 89.0686 131.39 91.8518C128.735 89.8922 126.647 91.8518 126.221 95.0752C125.963 100.556 126.191 106.05 126.903 111.49C122.089 110.411 125.838 121.686 128.706 121.956C129.203 126.216 130.964 130.902 134.386 132.038C134.386 132.606 134.301 133.188 134.301 133.756C125.12 135.222 116.284 138.355 108.23 143C103.799 139.876 93.9447 135.63 84.4733 136.411C82.7572 132.786 81.4659 128.974 80.6251 125.051C80.0003 121.629 81.6049 120.28 81.5907 117.327C83.4292 113.622 83.8873 109.383 82.8829 105.37C78.4099 91.1702 51.3873 96.5662 52.1541 112.158C52.2535 113.933 52.4097 115.708 52.5659 117.085C49.2289 118.093 49.7259 118.335 50.6489 122.396C51.1459 124.611 51.7139 126.443 54.0427 125.96C55.1077 130.575 57.7915 137.945 64.1247 137.945C64.5081 137.945 64.1247 137.704 64.4797 140.089C48.5899 147.005 28.6389 159.969 23.4701 182.689C22.2205 188.17 21.4679 195.952 25.0463 201.831C28.9797 208.377 35.9377 208.789 40.9361 208.462C39.7661 214.891 39.3894 221.439 39.8143 227.959C39.8169 228.05 39.8444 228.139 39.894 228.215C39.9435 228.291 40.0132 228.353 40.0952 228.392C40.1773 228.432 40.2687 228.448 40.3594 228.439C40.4501 228.431 40.5366 228.397 40.6095 228.342C41.3763 227.888 39.8711 227.405 42.2709 208.363C55.6473 207.127 68.3989 201.376 80.1849 195.327C82.1303 196.747 84.0615 198.167 86.0637 199.445C87.7098 202.774 90.2324 205.59 93.36 207.592C96.4876 209.594 100.102 210.705 103.814 210.805C103.459 216.783 103.459 222.776 103.814 228.754C103.819 228.826 103.839 228.897 103.872 228.961C103.905 229.026 103.951 229.083 104.006 229.129C104.062 229.175 104.126 229.21 104.196 229.231C104.265 229.252 104.338 229.259 104.41 229.251C105.631 229.137 104.055 228.527 105.021 210.791C116.835 210.791 126.534 203.08 136.261 197.187C147.706 202.427 175.765 212.183 190.604 209.371C191.286 215.42 191.186 221.157 191.768 227.007C191.787 227.112 191.842 227.207 191.924 227.276C192.006 227.344 192.109 227.382 192.216 227.382C192.322 227.382 192.426 227.344 192.507 227.276C192.589 227.207 192.644 227.112 192.663 227.007C193.036 221.03 192.793 215.029 191.939 209.101C202.234 206.659 208.553 199.403 210.228 188.128C210.91 187.673 211.648 187.162 212.415 186.58C221.205 190.087 239.395 198.622 248.284 198.934C247.873 205.537 247.29 212.509 247.191 219.354C247.211 219.469 247.271 219.574 247.361 219.65C247.45 219.725 247.564 219.767 247.681 219.767C247.798 219.767 247.912 219.725 248.001 219.65C248.091 219.574 248.151 219.469 248.171 219.354C248.37 217.465 249.662 201.348 249.591 198.891C263.819 198.565 266.063 186.921 261.803 173.488ZM160.472 112.797C160.855 112.286 161.068 111.689 161.622 111.86C163.61 112.442 162.019 117.383 160.358 119.584C160.5 117.327 160.543 115.04 160.472 112.797ZM126.576 112.797C127.031 112.797 126.974 112.996 127.996 113.194L128.564 120.209C126.463 118.264 124.943 112.825 126.576 112.825V112.797ZM225.238 111.377C225.298 111.177 225.435 111.01 225.619 110.911C225.803 110.813 226.018 110.791 226.218 110.851C226.417 110.912 226.585 111.049 226.683 111.232C226.782 111.416 226.803 111.632 226.743 111.831C226.246 113.592 225.863 114.87 225.536 116.091C225.452 116.243 225.334 116.374 225.191 116.472C225.048 116.571 224.884 116.635 224.712 116.659C223.463 116.702 224.798 112.655 225.238 111.348V111.377ZM201.339 117.057C202.149 116.446 203.128 117.227 203.285 117.241C204.619 118.093 206.125 116.858 205.741 116.503L205.457 116.276C204.407 115.452 202.248 113.748 202.702 112.584C203.043 111.703 204.435 111.831 205.344 111.789C205.376 111.788 205.408 111.779 205.436 111.764C205.465 111.749 205.49 111.728 205.509 111.702C205.528 111.676 205.541 111.646 205.547 111.614C205.553 111.583 205.551 111.55 205.542 111.519C205.4 111.064 205.23 110.61 205.06 110.099C210.426 107.437 216.31 105.983 222.298 105.839C222.909 107.259 223.434 108.608 223.903 109.943C222.128 110.951 220.112 112.058 219.643 114.075C219.221 114.022 218.793 114.065 218.39 114.201C217.987 114.336 217.619 114.56 217.314 114.856C215.085 112.172 205.855 112.399 203.995 112.47C201.595 112.57 207.928 117.412 209.675 118.775C215.539 123.333 219.373 120.195 217.911 116.034C218.116 115.783 218.385 115.592 218.69 115.482C218.995 115.372 219.325 115.347 219.643 115.41C219.696 115.679 219.782 115.942 219.899 116.191C219.828 116.156 219.75 116.137 219.671 116.137C219.593 116.137 219.515 116.156 219.444 116.191C218.862 116.56 219.444 117.057 220.779 119.428C220.614 119.596 220.439 119.752 220.254 119.897C219.714 120.294 220.183 122.027 221.986 119.897C222.256 119.57 221.745 118.619 221.177 117.781C221.862 118.248 222.684 118.474 223.512 118.422C224.339 118.371 225.127 118.045 225.749 117.497C226.37 121.309 226.018 125.217 224.727 128.857C223.307 132.336 219.742 132.535 220.467 133.855C220.654 138.537 220.273 143.224 219.331 147.814C215.681 147.019 208.496 138.115 205.628 133.983C205.925 130.53 205.479 127.054 204.321 123.788C203.37 122.14 201.481 121.388 200.984 119.528C200.79 119.113 200.721 118.651 200.784 118.197C200.847 117.744 201.04 117.318 201.339 116.972V117.057ZM222.867 114.685C222.71 115.154 222.611 115.807 222.1 115.807C221.588 115.807 221.333 115.211 221.39 114.7C221.446 114.188 221.588 113.01 222.128 112.697C222.232 112.646 222.346 112.619 222.462 112.619C222.578 112.619 222.692 112.646 222.795 112.697C223.463 112.882 223.108 113.876 222.867 114.6V114.685ZM215.213 117.951C215.057 118.335 214.9 119.031 214.446 119.244C214.366 119.282 214.279 119.303 214.19 119.303C214.102 119.303 214.014 119.282 213.935 119.244C213.083 118.931 214.02 115.765 214.787 115.154C214.854 115.086 214.937 115.036 215.028 115.008C215.119 114.981 215.216 114.977 215.31 114.996C215.403 115.016 215.49 115.059 215.563 115.122C215.635 115.184 215.69 115.263 215.724 115.353C216.022 116.006 215.298 117.653 215.213 117.866V117.951ZM212.103 116.574C211.918 116.943 211.833 117.284 211.35 117.284C211.237 117.292 211.123 117.272 211.019 117.225C210.915 117.179 210.824 117.108 210.754 117.018C210.684 116.929 210.637 116.823 210.617 116.711C210.597 116.599 210.605 116.483 210.64 116.375C210.796 115.907 210.967 114.842 211.535 114.558C211.625 114.516 211.722 114.493 211.822 114.491C211.921 114.489 212.019 114.507 212.111 114.544C212.203 114.581 212.286 114.637 212.356 114.708C212.425 114.778 212.479 114.863 212.515 114.955C212.713 115.424 212.387 116.063 212.103 116.574ZM205.003 134.778C209.036 141.736 219.657 151.818 220.481 148.439C221.41 144.427 221.839 140.316 221.759 136.198C241.213 143.071 254.419 155.667 260.17 172.664C256.007 170.677 251.433 169.704 246.822 169.824C246.623 165.152 240.219 156.121 237.762 153.409C237.265 152.855 236.342 153.565 236.882 154.119C240.565 158.29 243.384 163.15 245.175 168.418C238.217 163.178 224.201 155.865 204.989 161.886C200.004 153.378 192.726 146.445 183.987 141.878C190.276 137.766 197.508 135.322 205.003 134.778ZM130.95 102.743C139.489 100.412 148.461 100.154 157.12 101.991C156.975 104.397 157.051 106.812 157.348 109.204H157.092C155.913 103.78 148.359 102.104 145.817 107.784C144.519 107.344 143.111 107.344 141.813 107.784C139.356 102.672 132.242 104.319 130.936 109.375H130.666C130.964 107.178 131.059 104.958 130.95 102.743ZM150.262 114.43C150.517 113.706 152.818 108.338 154.309 108.182C154.433 108.18 154.556 108.208 154.667 108.264C154.778 108.319 154.874 108.4 154.948 108.5C155.021 108.6 155.07 108.716 155.09 108.838C155.11 108.961 155.1 109.086 155.061 109.204C153.794 111.01 152.664 112.909 151.682 114.884C151.327 115.765 149.935 115.424 150.262 114.43ZM148.203 112.442C148.032 112.868 147.266 113.123 146.996 112.626C146.726 112.129 147.379 110.241 149.225 107.472C149.694 106.776 150.134 106.435 150.517 106.492C150.642 106.528 150.756 106.593 150.85 106.683C150.944 106.773 151.014 106.884 151.054 107.008C151.095 107.131 151.105 107.262 151.083 107.39C151.061 107.518 151.008 107.639 150.929 107.742C149.849 109.202 148.934 110.779 148.203 112.442ZM135.849 114.799C136.459 113.464 137.141 112.115 137.794 110.795C137.864 110.667 137.967 110.561 138.092 110.487C138.217 110.413 138.359 110.374 138.504 110.374C138.649 110.374 138.792 110.413 138.917 110.487C139.042 110.561 139.145 110.667 139.214 110.795C139.303 110.929 139.351 111.087 139.351 111.249C139.351 111.411 139.303 111.569 139.214 111.703C138.589 112.939 137.95 114.231 137.269 115.481C136.729 116.191 135.423 115.651 135.849 114.799ZM134.131 113.01L134.045 113.109C133.605 113.748 132.498 113.336 132.796 112.527C133.616 110.345 134.663 108.256 135.92 106.293C136.53 105.555 137.766 106.194 137.34 107.06C136.332 109.076 135.096 110.965 134.131 113.01ZM129.061 113.138C129.97 112.754 130.226 111.718 130.481 110.823L130.779 110.738C130.705 111.723 130.826 112.713 131.136 113.651C131.445 114.589 131.937 115.457 132.583 116.205C133.349 116.957 134.309 117.481 135.355 117.72C136.402 117.958 137.494 117.901 138.51 117.555C139.526 117.209 140.426 116.588 141.11 115.76C141.793 114.932 142.233 113.931 142.381 112.868C142.234 114.235 142.172 115.611 142.196 116.986C142.196 117.838 141.997 118.903 143.048 118.974H144.468C145.207 118.974 145.405 117.696 144.553 117.682H143.503C143.42 115.152 143.558 112.619 143.914 110.113C144.014 109.417 143.006 109.318 142.864 109.971C142.239 113.024 142.864 111.277 142.31 109.02C143.301 108.664 144.386 108.664 145.377 109.02C145.064 110.158 145.003 111.351 145.197 112.515C145.39 113.68 145.835 114.789 146.499 115.765C147.005 116.42 147.646 116.959 148.378 117.345C149.111 117.732 149.918 117.956 150.745 118.003C151.572 118.05 152.399 117.919 153.171 117.619C153.942 117.318 154.64 116.855 155.218 116.262C156.613 114.705 157.355 112.671 157.291 110.582H157.561C157.731 111.817 157.987 113.521 159.293 113.422C159.151 118.278 159.577 126.599 155.729 129.638C155.232 130.036 154.664 130.49 154.593 130.944C154.415 132.449 154.415 133.969 154.593 135.474C155.005 139.408 148.118 147.189 144.553 150.512C137.681 141.168 135.707 140.245 135.721 132.052C135.721 131.228 135.622 131.101 135.054 130.817C129.303 128.033 129.828 120.01 129.061 113.138ZM134.372 135.006C134.528 139.365 137.95 145.258 143.985 151.605C145.207 153.196 155.999 139.947 155.786 137.079V134.679C184.853 138.101 205.685 154.829 209.007 177.378C196.937 175.007 181.686 177.79 179.102 178.287C177.994 171.225 175.905 164.352 172.897 157.868C172.846 157.741 172.747 157.641 172.622 157.587C172.497 157.534 172.355 157.533 172.229 157.584C172.103 157.634 172.002 157.733 171.949 157.858C171.896 157.984 171.894 158.125 171.945 158.251C174.556 164.651 176.461 171.317 177.625 178.131C170.156 170.264 158.796 166.771 142.963 167.481C133.433 167.923 123.967 169.268 114.691 171.5C115.433 167.169 117.2 163.079 119.845 159.572C119.903 159.466 119.921 159.343 119.895 159.225C119.869 159.107 119.801 159.003 119.703 158.932C119.606 158.86 119.486 158.827 119.366 158.838C119.246 158.848 119.134 158.902 119.05 158.989C116.067 162.676 114.107 167.084 113.37 171.769C103.075 174.239 93.0769 177.815 83.5503 182.434C84.8567 154.616 110.573 139.706 134.372 135.006ZM72.7867 108.707C72.7721 110.055 72.8528 111.403 73.0281 112.74C67.9161 112.868 59.7937 114.856 53.7445 116.73C53.5883 115.481 53.2333 113.209 53.2191 111.86C59.3058 108.959 66.0969 107.865 72.7867 108.707ZM68.2711 116.333C65.4311 121.161 66.0417 122.013 65.0903 122.013C64.9835 122.019 64.8768 122 64.779 121.956C64.6813 121.913 64.5954 121.847 64.5285 121.763C64.4617 121.68 64.416 121.581 64.3951 121.477C64.3743 121.372 64.3789 121.263 64.4087 121.161C65.7009 116.276 66.9363 115.367 67.5611 115.253C67.6973 115.226 67.8387 115.239 67.967 115.293C68.0954 115.346 68.2048 115.437 68.2812 115.553C68.3576 115.669 68.3975 115.805 68.3957 115.944C68.3939 116.083 68.3505 116.218 68.2711 116.333ZM63.8833 117.398C63.3579 118.264 63.2301 119.471 62.4633 119.286C61.6965 119.102 62.2503 117.369 62.7047 116.446C63.1591 115.523 63.5567 115.509 63.8265 115.58C63.9785 115.621 64.1138 115.709 64.2131 115.832C64.3125 115.954 64.3709 116.104 64.3803 116.262C64.3246 116.679 64.1524 117.073 63.8833 117.398ZM53.3185 120.238C53.1623 120.607 53.1481 121.743 52.3813 121.743C52.2321 121.749 52.0852 121.704 51.9642 121.617C51.8432 121.529 51.7551 121.404 51.7139 121.26C51.6387 120.267 51.9547 119.283 52.5943 118.519C52.7262 118.402 52.892 118.328 53.068 118.311C53.244 118.293 53.4212 118.331 53.5741 118.42C53.9149 118.647 53.8439 119.244 53.3185 120.195V120.238ZM53.8439 123.546C55.1361 118.903 55.8745 118.221 56.3147 118.122C56.4052 118.101 56.4997 118.106 56.5875 118.136C56.6754 118.166 56.753 118.22 56.8117 118.292C57.0047 118.516 57.1017 118.807 57.0815 119.102L55.2071 123.944C55.1487 124.125 55.0209 124.275 54.8518 124.361C54.6827 124.448 54.4862 124.464 54.3054 124.405C54.1246 124.347 53.9744 124.219 53.8879 124.05C53.8013 123.881 53.7855 123.684 53.8439 123.504V123.546ZM55.2639 125.69C57.9903 124.895 58.8707 125.122 58.5725 120.976C58.4731 119.797 58.2459 117.114 59.4387 117.156C60.4043 117.156 60.4327 121.643 61.8669 123.035C63.3011 124.427 65.1613 123.447 66.7233 123.035C70.9833 121.871 70.0461 120.053 69.7337 114.416L73.3121 114.132C74.9167 122.453 77.0751 116.219 78.5235 115.282C79.4465 114.7 80.2417 115.978 80.4121 116.957C80.7387 119.059 78.9921 121.359 79.3613 124.441C80.1981 128.901 81.6309 133.228 83.6213 137.306C80.5115 143.213 71.5797 148.666 67.6037 150.824C65.9281 144.747 65.7861 136.766 64.7637 136.795C60.0493 136.823 56.9537 133.259 55.2071 125.648L55.2639 125.69ZM64.6075 141.452C64.8631 143.597 65.9139 152.812 67.4475 152.046C71.3099 150.228 83.0675 142.503 84.7431 137.533C87.2281 138.101 94.9813 136.596 107.023 143.852C98.137 149.16 91.0067 156.962 86.5181 166.288C75.0303 164.868 60.8161 163.093 48.8739 169.398C52.5233 160.793 54.7101 159.941 53.6735 159.259C53.6198 159.222 53.5593 159.197 53.4955 159.184C53.4318 159.172 53.3661 159.172 53.3024 159.185C53.2388 159.198 53.1785 159.224 53.1251 159.261C53.0717 159.299 53.0264 159.346 52.9919 159.401C52.6227 159.955 47.4397 168.518 47.3119 170.264C45.3097 171.485 41.0355 174.609 39.7575 177.066C34.5371 177.168 29.4501 178.732 25.0747 181.582C29.3915 164.868 43.0377 150.995 64.5507 141.41L64.6075 141.452ZM27.7869 203.464C22.3625 197.784 23.5269 188.284 24.6487 183.073C38.5079 173.97 56.8259 177.861 79.1199 194.66C71.6223 197.869 38.8629 214.952 27.7869 203.464ZM41.1917 177.038C52.4665 164.556 68.7681 165.351 85.9359 167.467C81.5339 177.62 81.1505 188.341 84.8283 197.088C72.0483 187.517 56.9537 176.995 41.1917 176.995V177.038ZM104.921 209.698C90.9343 209.698 83.4225 197.415 83.6213 183.783C103.501 174.851 120.868 170.278 139.896 168.958C157.277 167.751 168.977 170.917 176.645 178.898C139.186 187.29 123.722 209.655 104.921 209.655V209.698ZM190.803 208.136C176.901 211.274 153.883 203.066 137.524 196.52C163.596 181.127 187.054 175.319 209.192 178.77C210.938 194.631 204.406 205.054 190.803 208.136ZM210.498 186.637C211.235 178.426 209.5 170.182 205.514 162.965C220.765 159.018 233.644 161.318 244.834 169.98C230.137 171.074 215.326 182.547 210.484 186.637H210.498ZM249.122 197.67C240.432 197.67 222.142 189.15 213.722 185.714C222.724 178.898 233.389 171.67 246.225 171.159C251.24 170.849 256.242 171.946 260.667 174.325C264.472 187.162 262.57 197.585 249.108 197.67H249.122Z" fill="#9747FF"/>
</svg>
