<svg width="284" height="284" viewBox="0 0 284 284" fill="none" xmlns="http://www.w3.org/2000/svg">
<path d="M124.96 35.8836C125.599 40.8678 128.666 41.6488 128.666 41.6488C133.679 41.9896 131.918 37.5166 131.918 37.5166C126.778 27.2216 114.239 30.6438 114.239 30.6438C114.239 30.6438 124.264 30.8994 124.96 35.8836ZM197.593 55.1104C204.778 45.2698 192.027 37.7438 192.027 37.7438C192.866 41.5749 192.866 45.5424 192.027 49.3736C191.345 58.703 197.593 55.1104 197.593 55.1104Z" fill="#9747FF"/>
<path d="M262.7 64.17C262.7 64.17 248.5 28.244 197.693 13.76C146.885 -0.723962 108.46 29.38 108.46 29.38C157.137 13.76 166.382 26.3554 166.382 26.3554C166.382 26.3554 174.703 35.8268 182.356 34.6766C190.01 33.5264 184.913 26.1566 184.913 26.1566C203.273 29.8202 206.283 40.5696 210.799 49.7002C215.315 58.8308 220.739 54.159 225.908 49.0186C231.077 43.8782 236.515 50.041 236.515 50.041C241.135 56.4389 244.1 63.8806 245.146 71.7026C246.191 79.5246 245.285 87.4837 242.508 94.8704C233.093 120.885 249.352 122.418 249.352 122.418C282.367 116.525 262.7 64.17 262.7 64.17ZM218.382 42.87C215.655 43.7362 214.278 38.8514 214.278 38.8514C213.961 38.206 213.891 37.4665 214.082 36.773C214.273 36.0796 214.711 35.4802 215.315 35.0884C218.439 33.6684 219.575 37.7012 219.575 37.7012C219.575 37.7012 221.108 42.0606 218.368 42.9126L218.382 42.87ZM259.86 82.3602C260.212 82.363 260.558 82.4506 260.869 82.6156C261.179 82.7807 261.445 83.0182 261.645 83.3081C261.844 83.598 261.971 83.9317 262.013 84.2809C262.056 84.63 262.014 84.9844 261.891 85.3138C261.152 88.1538 258.128 85.896 258.128 85.896C257.914 85.563 257.789 85.1803 257.766 84.785C257.743 84.3897 257.823 83.9952 257.997 83.6396C258.171 83.284 258.434 82.9794 258.76 82.7553C259.087 82.5312 259.466 82.3951 259.86 82.3602ZM256.012 112.833C256.012 112.833 254.734 111.811 256.012 108.573C257.068 105.28 257.842 101.902 258.326 98.4772C259.945 92.9108 263.453 96.8584 263.453 96.8584C263.453 96.8584 265.938 100.792 262.175 108.403C258.412 116.014 256.012 112.848 256.012 112.848V112.833ZM105.577 85.2002C105.607 85.2002 105.636 85.1883 105.657 85.167C105.679 85.1457 105.691 85.1168 105.691 85.0866C105.691 85.0565 105.679 85.0276 105.657 85.0063C105.636 84.985 105.607 84.973 105.577 84.973C105.547 84.973 105.518 84.985 105.497 85.0063C105.475 85.0276 105.463 85.0565 105.463 85.0866C105.463 85.1168 105.475 85.1457 105.497 85.167C105.518 85.1883 105.547 85.2002 105.577 85.2002ZM118.158 94.4302C118.024 94.5547 117.876 94.6643 117.718 94.7568C117.7 94.7726 117.687 94.7938 117.682 94.8172C117.677 94.8406 117.679 94.8652 117.688 94.8873C117.698 94.9094 117.714 94.9279 117.735 94.9402C117.755 94.9525 117.779 94.9579 117.803 94.9556C119.678 94.4444 117.931 92.9534 117.803 91.9594C117.803 91.7464 117.32 91.9594 118.343 93.635C118.394 93.7711 118.403 93.919 118.37 94.0605C118.338 94.2019 118.264 94.3305 118.158 94.4302ZM120.061 90.0424C119.961 90.5392 119.961 91.0509 120.061 91.5476C120.078 91.5711 120.101 91.5902 120.127 91.6034C120.152 91.6165 120.181 91.6234 120.21 91.6234C120.239 91.6234 120.268 91.6165 120.294 91.6034C120.32 91.5902 120.342 91.5711 120.359 91.5476C120.424 91.0765 120.424 90.5987 120.359 90.1276C120.459 89.872 120.09 89.8152 120.061 90.0424ZM114.168 90.1986C114.05 90.7486 114.115 91.3219 114.353 91.8316C114.38 91.8575 114.413 91.8762 114.449 91.886C114.486 91.8959 114.524 91.8967 114.56 91.8882C114.597 91.8798 114.631 91.8624 114.659 91.8377C114.687 91.8129 114.709 91.7816 114.722 91.7464C114.761 91.2234 114.698 90.6979 114.537 90.1986C114.519 90.1662 114.492 90.1392 114.459 90.1205C114.427 90.1018 114.39 90.0919 114.353 90.0919C114.315 90.0919 114.278 90.1018 114.246 90.1205C114.214 90.1392 114.187 90.1662 114.168 90.1986ZM112.578 89.0058C112.89 88.7076 114.253 87.7278 114.537 87.458C114.821 87.1882 114.168 86.8048 112.379 88.807C112.251 88.9348 112.45 89.1478 112.578 89.0058ZM121.14 88.381C120.798 87.9108 120.351 87.5267 119.834 87.2592C119.635 87.174 119.479 87.529 119.692 87.6142C119.905 87.6994 121.297 89.162 121.14 88.381ZM113.089 98.2926C113.174 98.392 113.316 98.2926 113.259 98.1648C112.821 97.5944 112.582 96.8962 112.578 96.1768C114.168 97.9234 115.915 97.4974 115.233 97.3128C114.246 97.095 113.34 96.6028 112.62 95.8928C112.265 95.552 112.052 97.0714 113.089 98.2926ZM104.384 86.9042C104.332 86.9042 104.281 86.9252 104.244 86.9625C104.206 86.9997 104.186 87.0503 104.186 87.103C104.186 87.1558 104.206 87.2063 104.244 87.2436C104.281 87.2809 104.332 87.3018 104.384 87.3018C104.437 87.3018 104.488 87.2809 104.525 87.2436C104.562 87.2063 104.583 87.1558 104.583 87.103C104.583 87.0503 104.562 86.9997 104.525 86.9625C104.488 86.9252 104.437 86.9042 104.384 86.9042ZM106.017 88.3952C106.078 88.3952 106.135 88.3713 106.178 88.3287C106.221 88.2861 106.244 88.2283 106.244 88.168C106.244 88.1078 106.221 88.05 106.178 88.0074C106.135 87.9648 106.078 87.9408 106.017 87.9408C105.957 87.9408 105.899 87.9648 105.857 88.0074C105.814 88.05 105.79 88.1078 105.79 88.168C105.79 88.2283 105.814 88.2861 105.857 88.3287C105.899 88.3713 105.957 88.3952 106.017 88.3952ZM106.273 86.4924C106.318 86.4804 106.358 86.4537 106.387 86.4165C106.416 86.3792 106.431 86.3335 106.431 86.2865C106.431 86.2395 106.416 86.1939 106.387 86.1566C106.358 86.1194 106.318 86.0927 106.273 86.0806C106.227 86.0927 106.187 86.1194 106.159 86.1566C106.13 86.1939 106.114 86.2395 106.114 86.2865C106.114 86.3335 106.13 86.3792 106.159 86.4165C106.187 86.4537 106.227 86.4804 106.273 86.4924ZM108.531 86.8048C108.58 86.7923 108.623 86.7639 108.654 86.7241C108.685 86.6842 108.702 86.6352 108.702 86.5847C108.702 86.5343 108.685 86.4853 108.654 86.4454C108.623 86.4056 108.58 86.3772 108.531 86.3646C108.482 86.3772 108.439 86.4056 108.408 86.4454C108.377 86.4853 108.36 86.5343 108.36 86.5847C108.36 86.6352 108.377 86.6842 108.408 86.7241C108.439 86.7639 108.482 86.7923 108.531 86.8048ZM109.042 90.6672C109.454 90.5252 108.914 90.0566 108.801 90.4258C108.758 90.5394 108.9 90.724 109.042 90.6672ZM108.36 88.9774C108.394 88.9774 108.427 88.964 108.451 88.94C108.475 88.916 108.488 88.8835 108.488 88.8496C108.488 88.8157 108.475 88.7832 108.451 88.7593C108.427 88.7353 108.394 88.7218 108.36 88.7218C108.326 88.7218 108.294 88.7353 108.27 88.7593C108.246 88.7832 108.233 88.8157 108.233 88.8496C108.233 88.8835 108.246 88.916 108.27 88.94C108.294 88.964 108.326 88.9774 108.36 88.9774ZM104.256 89.4602C104.219 89.4602 104.183 89.4752 104.156 89.5018C104.129 89.5285 104.115 89.5646 104.115 89.6022C104.115 89.6399 104.129 89.676 104.156 89.7026C104.183 89.7293 104.219 89.7442 104.256 89.7442C104.294 89.7442 104.33 89.7293 104.357 89.7026C104.384 89.676 104.398 89.6399 104.398 89.6022C104.398 89.5646 104.384 89.5285 104.357 89.5018C104.33 89.4752 104.294 89.4602 104.256 89.4602ZM105.748 95.2396C105.712 95.2501 105.681 95.2717 105.66 95.3011C105.638 95.3305 105.626 95.3662 105.626 95.4029C105.626 95.4396 105.638 95.4753 105.66 95.5048C105.681 95.5342 105.712 95.5558 105.748 95.5662C105.783 95.5558 105.814 95.5342 105.835 95.5048C105.857 95.4753 105.869 95.4396 105.869 95.4029C105.869 95.3662 105.857 95.3305 105.835 95.3011C105.814 95.2717 105.783 95.2501 105.748 95.2396ZM103.916 91.4056C103.855 91.4056 103.798 91.4296 103.755 91.4722C103.712 91.5148 103.688 91.5726 103.688 91.6328C103.688 91.6931 103.712 91.7509 103.755 91.7935C103.798 91.8361 103.855 91.86 103.916 91.86C103.976 91.86 104.034 91.8361 104.076 91.7935C104.119 91.7509 104.143 91.6931 104.143 91.6328C104.143 91.5726 104.119 91.5148 104.076 91.4722C104.034 91.4296 103.976 91.4056 103.916 91.4056ZM106.017 89.4602C105.988 89.4521 105.957 89.451 105.927 89.4568C105.897 89.4626 105.868 89.4753 105.844 89.4938C105.82 89.5124 105.8 89.5363 105.786 89.5637C105.773 89.5912 105.766 89.6213 105.766 89.6519C105.766 89.6825 105.773 89.7127 105.786 89.7401C105.8 89.7676 105.82 89.7915 105.844 89.81C105.868 89.8286 105.897 89.8413 105.927 89.8471C105.957 89.8529 105.988 89.8517 106.017 89.8436C106.059 89.8321 106.096 89.8071 106.123 89.7725C106.149 89.7378 106.163 89.6955 106.163 89.6519C106.163 89.6084 106.149 89.566 106.123 89.5314C106.096 89.4968 106.059 89.4718 106.017 89.4602ZM107.593 88.2674C107.642 88.2674 107.689 88.248 107.724 88.2134C107.759 88.1788 107.778 88.1318 107.778 88.0828C107.778 88.0339 107.759 87.9869 107.724 87.9523C107.689 87.9177 107.642 87.8982 107.593 87.8982C107.545 87.8982 107.498 87.9177 107.463 87.9523C107.428 87.9869 107.409 88.0339 107.409 88.0828C107.409 88.1318 107.428 88.1788 107.463 88.2134C107.498 88.248 107.545 88.2674 107.593 88.2674ZM88.2957 135.582C88.3087 135.516 88.3087 135.449 88.2957 135.383C88.1395 133.963 85.8533 135.184 86.8757 136.349C86.9724 136.445 87.0963 136.509 87.2307 136.533C87.3669 136.563 87.5082 136.56 87.6431 136.525C87.778 136.49 87.9026 136.423 88.0066 136.33C88.1106 136.237 88.191 136.121 88.2413 135.991C88.2916 135.861 88.3102 135.721 88.2957 135.582ZM89.9429 127.601C90.0471 127.705 90.1775 127.778 90.32 127.813C90.4626 127.848 90.612 127.844 90.7523 127.8C90.8635 127.762 90.9653 127.7 91.0512 127.62C91.137 127.539 91.2049 127.441 91.2504 127.333C91.296 127.224 91.3182 127.107 91.3155 126.99C91.3129 126.872 91.2855 126.756 91.2351 126.65C90.9795 125.585 88.9489 126.565 89.9429 127.601ZM93.2231 132.515C93.3102 132.281 93.3102 132.024 93.2231 131.79C91.4197 130.214 91.5617 134.574 93.2231 132.515ZM79.7757 138.919C80.6703 139.558 81.5223 138.677 80.7413 137.754C80.4431 137.399 78.6965 138.109 79.7757 138.919ZM87.8697 142.284C86.0237 140.949 85.7539 144.954 87.6851 143.704C87.8765 143.527 88.0029 143.291 88.0441 143.034C88.0853 142.776 88.0389 142.512 87.9123 142.284H87.8697ZM93.3793 120.473C92.9533 121.353 94.3591 122.12 94.6857 120.757C94.6857 120.445 94.6857 120.033 93.9615 119.976C93.8265 119.993 93.6994 120.049 93.5959 120.137C93.4924 120.226 93.4171 120.342 93.3793 120.473ZM92.3001 115.02C92.4371 115.096 92.5945 115.126 92.7497 115.106C92.9049 115.086 93.0498 115.018 93.1635 114.91C93.2773 114.803 93.3539 114.662 93.3825 114.508C93.4111 114.355 93.3901 114.196 93.3225 114.055C92.8965 113.231 91.3487 114.168 92.3001 115.02ZM94.9839 109.014C94.9839 109.823 96.4891 109.709 96.4039 108.786C96.403 108.693 96.3791 108.602 96.3346 108.52C96.29 108.439 96.226 108.369 96.1483 108.318C95.8217 107.92 94.6147 108.218 94.9839 109.014ZM101.147 100.735C101.956 100.252 101.431 99.0736 100.65 99.4996C99.6273 99.599 100.224 101.275 101.147 100.735ZM95.6229 94.4444C95.6292 94.3973 95.6292 94.3496 95.6229 94.3024C95.6448 94.1907 95.6385 94.0753 95.6043 93.9667C95.5702 93.8581 95.5094 93.7598 95.4275 93.6807C95.3456 93.6016 95.2452 93.5443 95.1355 93.514C95.0257 93.4837 94.9102 93.4814 94.7993 93.5072C94.6834 93.5375 94.5779 93.5984 94.4937 93.6836C94.4094 93.7687 94.3497 93.8749 94.3206 93.9911C94.2916 94.1072 94.2943 94.2291 94.3286 94.3438C94.3628 94.4586 94.4273 94.562 94.5153 94.6432C94.5697 94.7595 94.661 94.8545 94.7749 94.9136C94.8889 94.9726 95.0192 94.9923 95.1455 94.9696C95.2719 94.947 95.3872 94.8832 95.4735 94.7882C95.5598 94.6932 95.6123 94.5724 95.6229 94.4444ZM86.6201 88.0402C85.9527 87.174 84.8735 88.2532 85.5409 88.9632C85.6012 89.0185 85.6679 89.0661 85.7397 89.1052C86.2083 89.5596 87.2307 88.7502 86.6201 88.0402ZM87.5005 79.3924C87.1597 79.719 87.2023 80.6136 87.7987 80.6846C87.9367 80.7479 88.0916 80.7643 88.2398 80.7313C88.388 80.6983 88.5213 80.6177 88.6195 80.5019C88.7176 80.386 88.7752 80.2413 88.7834 80.0897C88.7916 79.9381 88.75 79.788 88.6649 79.6622C88.6131 79.5608 88.5398 79.4719 88.4501 79.4018C88.3604 79.3317 88.2564 79.282 88.1455 79.2563C88.0346 79.2306 87.9194 79.2295 87.8079 79.253C87.6965 79.2765 87.5916 79.3241 87.5005 79.3924ZM89.8719 70.4748C89.7186 70.3994 89.5439 70.3795 89.3775 70.4185C89.2112 70.4575 89.0635 70.5529 88.9597 70.6886C88.8558 70.8243 88.8022 70.9918 88.808 71.1625C88.8138 71.3333 88.8787 71.4967 88.9915 71.625C89.0272 71.7686 89.0996 71.9004 89.2017 72.0075C89.3038 72.1145 89.432 72.1932 89.5737 72.2356C89.6652 72.2475 89.7581 72.2411 89.8471 72.2168C89.9361 72.1924 90.0193 72.1506 90.092 72.0938C90.1647 72.037 90.2253 71.9663 90.2704 71.8858C90.3155 71.8053 90.3442 71.7167 90.3547 71.625C90.3855 71.4851 90.3822 71.3399 90.3451 71.2015C90.308 71.0631 90.2383 70.9356 90.1417 70.8298C90.0997 70.6817 90.0034 70.5549 89.8719 70.4748ZM84.7315 75.4874C85.0723 74.394 83.2263 74.2804 83.2263 75.3028C83.2296 75.489 83.3031 75.6672 83.4321 75.8014C83.5612 75.9357 83.7362 76.0163 83.9221 76.027C84.0982 76.0419 84.2741 75.9967 84.4211 75.8987C84.5681 75.8006 84.6775 75.6557 84.7315 75.4874ZM84.0357 130.754C84.6321 131.79 85.9385 129.93 84.4049 129.831C84.1635 129.987 83.7801 130.115 84.0357 130.754ZM118.698 135.766C118.843 135.743 118.978 135.678 119.088 135.581C119.198 135.484 119.278 135.358 119.32 135.217C119.361 135.076 119.362 134.926 119.323 134.785C119.283 134.643 119.204 134.516 119.096 134.417C118.386 133.651 117.193 135.695 118.698 135.766ZM120.331 125.131C120.501 124.79 120.501 124.35 120.075 124.208C118.03 123.895 119.096 127.019 120.331 125.131ZM116.98 116.738C116.84 116.703 116.693 116.703 116.554 116.738C114.367 118.258 119.067 118.741 116.98 116.738ZM122.12 114.41C122.631 113.955 122.66 112.904 121.666 112.99C120.672 113.075 120.927 115.12 122.12 114.41ZM124.776 119.706C124.762 119.613 124.729 119.524 124.677 119.446C124.626 119.367 124.557 119.301 124.477 119.252C124.373 119.178 124.248 119.138 124.12 119.137C123.992 119.136 123.866 119.175 123.761 119.248C123.656 119.321 123.575 119.424 123.531 119.544C123.486 119.664 123.479 119.795 123.512 119.919C123.54 120.087 123.634 120.236 123.772 120.335C123.911 120.433 124.083 120.473 124.25 120.445C124.418 120.416 124.567 120.323 124.666 120.184C124.764 120.046 124.804 119.874 124.776 119.706ZM128.837 124.051C128.975 124.018 129.098 123.94 129.188 123.829C129.277 123.719 129.329 123.583 129.334 123.441C129.377 123.292 129.359 123.132 129.285 122.996C129.21 122.861 129.085 122.76 128.936 122.717C128.787 122.673 128.627 122.691 128.492 122.765C128.356 122.84 128.255 122.965 128.212 123.114C127.999 123.327 128.113 124.236 128.837 124.051ZM127.644 130.725C127.5 130.792 127.384 130.908 127.317 131.052C126.465 133.949 130.257 130.768 127.644 130.725ZM137.939 131.265C137.918 131.109 137.843 130.966 137.725 130.862C137.608 130.758 137.457 130.699 137.3 130.697C135 131.336 137.541 133.48 137.939 131.265ZM139.998 123.029C140.608 123.313 141.106 122.106 140.381 121.779C139.984 121.467 139.132 122.163 139.657 122.859C139.744 122.957 139.867 123.018 139.998 123.029ZM145.394 125.301C146.033 125.301 146.445 123.881 145.394 123.881C145.096 123.881 144.769 124.051 144.698 124.591C144.69 124.685 144.702 124.78 144.734 124.869C144.765 124.958 144.816 125.039 144.882 125.107C144.948 125.174 145.028 125.226 145.117 125.26C145.205 125.294 145.3 125.308 145.394 125.301ZM125.23 144.925C125.418 144.907 125.591 144.814 125.711 144.667C125.831 144.521 125.888 144.333 125.869 144.144C125.85 143.956 125.757 143.783 125.611 143.663C125.464 143.543 125.276 143.487 125.088 143.505C124.9 143.524 124.726 143.617 124.607 143.764C124.487 143.91 124.43 144.098 124.449 144.286C124.468 144.475 124.561 144.648 124.707 144.768C124.854 144.888 125.042 144.944 125.23 144.925ZM118.939 152.991C119.55 153.488 120.743 152.537 120.061 151.685C119.593 150.875 118.102 152.025 118.939 152.991ZM127.275 155.093C127.424 154.994 127.536 154.847 127.59 154.677C127.644 154.506 127.638 154.322 127.573 154.155C127.573 153.744 126.607 153.105 126.338 154.028C126.251 154.163 126.212 154.322 126.224 154.481C126.236 154.641 126.3 154.792 126.406 154.912C126.512 155.033 126.653 155.115 126.81 155.148C126.967 155.18 127.13 155.161 127.275 155.093ZM117.96 142.824C117.789 142.724 117.718 142.71 117.292 142.824C116.866 142.937 116.824 143.434 117.292 143.86C117.761 144.286 118.996 143.42 117.96 142.824ZM168.895 101.204C168.93 100.976 168.909 100.743 168.834 100.525C168.76 100.307 168.633 100.111 168.465 99.953C168.297 99.7951 168.094 99.6804 167.872 99.6187C167.65 99.557 167.416 99.5503 167.191 99.599C166.906 99.708 166.672 99.9211 166.538 100.195C166.424 100.304 166.337 100.438 166.283 100.585C166.229 100.733 166.209 100.891 166.225 101.047C165.828 102.624 168.512 103.149 168.895 101.204ZM172.459 105.861C174.135 107.04 176.222 104.583 175.115 103.121C174.852 102.75 174.471 102.481 174.035 102.357C173.598 102.233 173.132 102.262 172.715 102.439C171.536 103.064 171.039 105.151 172.459 105.861ZM173.808 113.87C174.717 115.901 178.068 112.762 175.839 111.357C174.376 110.419 173.098 112.691 173.808 113.87ZM169.633 121.368C169.883 121.396 170.136 121.371 170.376 121.294C170.615 121.218 170.836 121.092 171.024 120.924C171.211 120.757 171.361 120.552 171.464 120.322C171.567 120.093 171.621 119.844 171.621 119.593C172.275 117.86 170.372 116.838 169.221 117.122C167.475 117.548 167.901 121.581 169.633 121.368ZM162.008 123.37C162.299 123.596 162.658 123.718 163.026 123.718C163.395 123.717 163.753 123.595 164.044 123.368C164.335 123.142 164.543 122.826 164.634 122.469C164.726 122.112 164.696 121.734 164.55 121.396C163.74 119.507 161.142 120.288 161.468 122.518C161.576 122.841 161.762 123.134 162.008 123.37ZM157.62 116.781C157.444 116.762 157.266 116.781 157.097 116.834C156.929 116.888 156.773 116.976 156.64 117.093C155.902 117.747 155.888 119.55 157.009 119.749C158.429 120.331 159.736 118.087 158.529 117.15C158.264 116.948 157.951 116.821 157.62 116.781Z" fill="#9747FF"/>
<path d="M153.999 211.964C146.487 211.112 138.521 210.458 131.08 212.248L119.053 185.481C121.893 181.306 123.654 174.774 124.861 169.065C130.981 169.917 137.144 167.518 134.985 161.781C133.693 158.415 131.577 154.965 130.569 151.5C129.521 147.684 129.108 143.721 129.348 139.771C130.057 140.051 130.803 140.223 131.563 140.282C134.289 140.467 136.391 138.862 138.365 137.229C142.982 133.335 146.785 128.567 149.554 123.199C149.252 122.455 148.896 121.734 148.489 121.041C149.764 120.59 150.958 119.938 152.025 119.11C152.565 126.352 158.912 130.825 163.627 129.973C170.23 128.794 174.504 124.463 178.622 119.124C180.641 116.736 181.976 113.846 182.484 110.76C183.123 105.591 182.257 98.3494 177.23 95.5378C175.942 94.8355 174.504 94.451 173.037 94.4164C171.57 94.3819 170.116 94.6982 168.796 95.339C165.682 96.6547 163.202 99.1294 161.88 102.24C159.409 98.321 150.733 100.991 153.076 109.34C151.466 109.951 150.083 111.041 149.114 112.464C148.549 113.268 147.922 114.028 147.24 114.736C146.672 115.247 145.948 115.531 145.351 116.014C145.238 115.924 145.138 115.819 145.053 115.702H144.868C140.655 118.207 136.727 121.164 133.153 124.52C129.788 117.562 124.151 108.275 117.86 104.257C117.775 102.936 117.661 101.417 117.675 101.417C119.507 100.366 121.935 100.167 122.716 95.7366C123.266 92.1745 123.063 88.5369 122.12 85.0582C126.025 83.6382 126.792 78.157 125.741 79.293C125.241 79.9145 124.537 80.3374 123.753 80.4858C124.847 79.1238 125.408 77.4106 125.332 75.6655C125.257 73.9203 124.549 72.2622 123.341 71.0002C123.291 70.9389 123.223 70.8953 123.146 70.8759C123.069 70.8566 122.988 70.8625 122.915 70.8927C122.841 70.923 122.78 70.976 122.739 71.0439C122.698 71.1119 122.68 71.1911 122.688 71.27C122.851 72.1827 122.669 73.1233 122.179 73.9101C121.688 74.6968 120.924 75.2739 120.033 75.53V73.9538C120.035 73.8955 120.018 73.8382 119.983 73.7912C119.949 73.7442 119.899 73.7104 119.843 73.6955C119.786 73.6806 119.727 73.6854 119.673 73.7091C119.62 73.7329 119.577 73.7741 119.55 73.826C119.168 74.4743 118.662 75.0404 118.06 75.4914C117.458 75.9423 116.772 76.2692 116.042 76.453C116.239 75.7755 116.4 75.0882 116.525 74.394C116.532 74.3193 116.519 74.2442 116.486 74.1767C116.453 74.1092 116.403 74.0519 116.34 74.011C116.277 73.9701 116.204 73.9471 116.129 73.9445C116.054 73.9419 115.98 73.9599 115.915 73.9964L112.677 75.956C112.677 75.956 113.188 74.6496 111.64 74.7632C111.64 74.7632 106.599 79.4492 104.796 79.3498C103.504 79.3498 102.95 81.707 105.009 83.6098C101.218 86.4498 102.325 94.2172 105.989 96.8158C105.066 98.2358 104.924 98.392 105.123 98.4346C105.631 98.6032 106.163 98.6895 106.699 98.6902C106.099 98.8537 105.525 99.1024 104.995 99.4286C101.356 94.95 97.4135 90.7274 93.1947 86.7906C92.8681 76.7228 92.5131 67.4502 91.6327 67.1236C91.3915 67.0403 91.1448 66.9738 90.8943 66.9248C91.7321 64.1984 90.8943 60.3218 88.0543 59.1148C98.3919 47.6128 99.7409 47.272 99.2297 45.142C101.09 46.3206 103.49 44.9858 104.64 43.4238C109.567 41.6062 108.744 30.2178 107.224 31.7656C106.656 32.3478 107.068 34.4494 103.916 34.5346C102.141 34.5346 100.238 33.924 99.3007 34.7476C95.7507 34.9322 94.4159 40.74 96.1483 43.083C95.576 43.1954 95.034 43.4277 94.5579 43.7646L84.5185 56.8002C84.1493 56.8002 82.5305 55.8062 82.1045 57.425C82.0148 57.7647 82.0148 58.1219 82.1045 58.4616C81.6831 58.3049 81.2195 58.3049 80.7981 58.4616C80.4936 58.5501 80.2275 58.7381 80.0422 58.9954C79.8569 59.2528 79.7631 59.5647 79.7757 59.8816C79.7665 60.1159 79.8257 60.3478 79.9461 60.549C79.7393 60.5695 79.5456 60.6592 79.3961 60.8035C79.2467 60.9478 79.1502 61.1383 79.1225 61.3442C79.0737 61.6134 79.0841 61.8899 79.1527 62.1547C79.2214 62.4195 79.3467 62.6662 79.5201 62.8778L67.6347 75.814C67.6347 75.814 65.9733 77.6458 66.8679 78.5404C66.8679 78.5404 67.7341 79.4066 69.7079 77.4328L83.0701 65.0362C83.0727 65.4569 83.1872 65.8693 83.4018 66.2311C83.6164 66.5929 83.9234 66.8912 84.2913 67.0952C83.9346 67.1072 83.579 67.1404 83.2263 67.1946C83.1411 67.1946 83.2263 67.3366 83.2263 67.3366C91.3629 67.0952 91.5901 67.4928 91.6327 67.4786C91.7463 70.631 92.9391 83.4536 92.8113 86.7054C92.8055 86.7383 92.8055 86.7719 92.8113 86.8048C92.8113 87.1172 99.4711 93.4362 104.64 99.5848C102.981 100.857 101.607 102.463 100.607 104.299C96.6453 110.86 95.2111 130.882 95.1401 137.485C94.0041 147.808 86.6201 150.137 84.2913 147.325C82.574 145.397 80.6716 143.642 78.6113 142.085C77.1061 140.381 74.7063 138.01 72.8319 138.677C76.0127 135.695 81.6217 134.417 85.0439 127.545C90.5109 116.54 90.2127 101.8 89.6447 108.147C84.8999 102.602 81.7823 95.8515 80.637 88.6435C79.4916 81.4356 80.3632 74.0514 83.1553 67.3082C83.1553 67.1662 82.9565 67.0526 82.8997 67.2088C72.5905 90.6104 89.4601 108.502 89.5311 108.644C89.1356 112.36 88.4133 116.033 87.3727 119.621C83.4961 133.48 79.9035 132.614 73.3431 137.612C72.4022 138.204 71.6524 139.055 71.1838 140.062C70.7152 141.07 70.5478 142.192 70.7019 143.292C52.0857 150.392 55.8345 166.467 55.8345 166.467L60.8187 197.536C46.1075 203.33 31.5809 209.564 17.2957 216.351C17.1963 216.351 17.2247 216.607 17.3667 216.593C27.9741 215.712 38.1271 218.453 47.4707 223.139C44.8616 223.812 42.3115 224.695 39.8453 225.78C37.3887 226.746 34.9605 227.811 32.5749 228.947C27.4893 231.401 22.6037 234.25 17.9631 237.467C17.7643 237.467 17.8495 237.793 17.9631 237.751C26.0571 236.331 32.0353 235.308 39.8027 236.104C32.1773 240.207 16.7135 248.784 16.5857 248.784L17.5087 252.32H77.8019C77.8019 252.32 78.9379 247.975 82.1329 252.888C82.1329 252.888 107.224 256.537 135.17 276.843V272.74C135.17 272.74 115.29 255.259 80.3579 248.955C90.6529 248.443 101.473 246.853 111.598 249.906C127.147 254.62 138.237 262.686 138.706 262.317C156.427 245.973 150.279 252.462 167.418 237.183C169.732 238.215 172.102 239.116 174.518 239.881C172.53 241.187 156.399 252.008 135.681 272.541L135.908 276.872C135.908 276.872 157.876 252.86 174.717 242.508C174.717 242.508 174.717 239.668 174.632 239.668C172.317 238.773 169.96 237.779 167.532 237.083C172.473 232.71 174.348 232.298 173.581 231.971C170.426 230.378 167.161 229.011 163.811 227.882C168.299 224.232 177.855 216.919 177.628 216.834C168.284 213.483 167.56 213.511 153.999 211.964ZM98.9741 35.0742C98.7867 35.3411 98.6705 35.6514 98.6365 35.9758C98.6025 36.3001 98.6518 36.6278 98.7798 36.9277C98.9077 37.2277 99.1101 37.4901 99.3677 37.69C99.6254 37.89 99.9298 38.0209 100.252 38.0704C102.907 38.0704 99.8971 39.6324 99.7835 39.959C99.7445 40.1303 99.7655 40.3099 99.8431 40.4675C99.9206 40.6252 100.05 40.7515 100.209 40.8252C101.019 41.2086 101.715 40.4134 102.396 40.2572C102.822 40.1578 103.362 40.3566 103.404 40.7826C103.447 41.2086 102.836 41.5778 102.623 42.0464C102.538 42.2681 102.532 42.5127 102.607 42.7381C102.682 42.9636 102.834 43.1558 103.035 43.2818C103.282 43.4355 103.568 43.5144 103.859 43.509C103.328 44.2254 102.568 44.7386 101.705 44.9634C100.843 45.1881 99.9289 45.1109 99.1161 44.7444C98.9674 44.22 98.6477 43.7604 98.2076 43.4388C97.7676 43.1171 97.2327 42.9519 96.6879 42.9694C95.5093 41.8192 94.6715 36.5368 98.9741 35.0742ZM83.9079 56.9422C84.0665 56.9932 84.2276 57.0358 84.3907 57.07C85.1007 57.4534 85.0439 58.6178 85.0013 59.0154C84.5327 59.0154 84.3765 59.555 84.3197 59.9242C83.6523 59.7396 83.3825 59.8106 82.8997 59.1006C82.8015 58.9769 82.7158 58.8437 82.6441 58.703C82.0051 57.5954 82.5163 56.4594 83.9079 56.9422ZM80.9401 58.703C81.4323 58.6172 81.9388 58.7185 82.3601 58.987C82.5238 59.3487 82.79 59.6544 83.1256 59.8664C83.4613 60.0784 83.8518 60.1874 84.2487 60.1798C84.23 60.4023 84.2641 60.6261 84.3481 60.833C84.2193 61.0863 84.0097 61.2894 83.7526 61.4103C83.4954 61.5311 83.2053 61.5628 82.9281 61.5004C82.4636 61.5466 81.9946 61.489 81.555 61.3318C81.1154 61.1747 80.7162 60.9218 80.3863 60.5916C80.2637 60.4415 80.1795 60.2638 80.141 60.0738C80.1025 59.8838 80.1109 59.6873 80.1654 59.5013C80.22 59.3153 80.319 59.1454 80.454 59.0063C80.589 58.8672 80.7558 58.7631 80.9401 58.703ZM79.8041 62.8068C79.5747 62.5407 79.4399 62.2062 79.4207 61.8554C79.4207 61.3868 79.5911 60.691 80.2017 60.8756C80.5345 61.2001 80.9308 61.4522 81.3659 61.616C81.8009 61.7797 82.2651 61.8516 82.7293 61.827C82.6363 62.1103 82.4786 62.3681 82.2685 62.5798C82.0585 62.7915 81.8019 62.9512 81.5193 63.0463C81.2367 63.1415 80.9358 63.1693 80.6405 63.1278C80.3452 63.0862 80.0637 62.9763 79.8183 62.8068H79.8041ZM90.5819 66.8112L84.7031 66.9674C84.2846 66.8039 83.9197 66.5276 83.649 66.1691C83.3782 65.8106 83.2123 65.384 83.1695 64.9368L85.6971 62.608C86.2509 64.028 88.1963 64.028 87.5999 63.7582C87.0035 63.4884 86.0947 63.3322 85.8959 62.253C85.8757 62.0068 85.9521 61.7623 86.1089 61.5714C85.6285 61.4047 85.1742 61.1704 84.7599 60.8756C84.5698 60.6137 84.4887 60.2882 84.5338 59.9678C84.5788 59.6473 84.7464 59.3568 85.0013 59.1574H87.7277C90.7523 60.8756 90.8801 63.6304 90.5961 66.8112H90.5819ZM131.293 218.439C131.616 219.524 132.01 220.586 132.472 221.62C131.087 222.945 129.463 223.995 127.686 224.715C125.84 222.557 126.266 223.025 125.84 222.514C127.806 221.366 129.636 219.999 131.293 218.439ZM132.103 228.223C130.981 229.245 126.423 233.107 125.003 233.903C124.435 233.491 125.003 232.128 125.187 231.673C126.323 229.714 127.147 229.87 127.246 225.013C128.965 224.886 132.273 222.358 132.926 221.52C133.791 223.071 134.477 224.714 134.971 226.419C134.73 226.575 134.417 226.774 134.218 226.93C133.991 226.334 133.654 225.785 133.224 225.312C133.011 225.056 132.713 224.658 132.33 224.843C131.946 225.028 131.819 225.752 131.776 226.093C131.718 226.815 131.815 227.541 132.06 228.223H132.103ZM134.218 165.657C132.798 168.881 128.084 168.81 125.017 168.355C125.94 163.868 126.366 160.716 126.437 159.835C129.717 160.205 134.588 162.079 134.218 165.657ZM154.098 102.737C155.859 100.593 159.949 99.7126 161.553 102.482C161.565 102.507 161.583 102.53 161.605 102.547C161.627 102.565 161.653 102.576 161.681 102.581C161.692 102.602 161.708 102.619 161.728 102.632C161.748 102.644 161.771 102.65 161.795 102.65C161.818 102.65 161.841 102.644 161.861 102.632C161.881 102.619 161.898 102.602 161.908 102.581C167.02 92.2008 182.243 90.6814 182.044 108.928C182.044 114.608 178.295 119.081 174.617 123.029C160.417 138.223 148.404 123.427 153.488 112.748C153.509 112.693 153.509 112.633 153.488 112.578C154.267 112.143 155.119 111.854 156.001 111.726C155.362 114.807 160.844 114.978 161.284 111.371C161.354 110.654 161.177 109.935 160.781 109.333C160.386 108.731 159.797 108.283 159.111 108.062C158.49 107.912 157.834 108.015 157.289 108.348C156.743 108.681 156.351 109.216 156.2 109.837C155.331 109.246 154.269 109.012 153.232 109.184C152.991 106.955 152.636 104.612 154.169 102.737H154.098ZM156.299 110.022C156.467 109.455 156.853 108.978 157.372 108.696C157.892 108.414 158.502 108.349 159.068 108.517C159.572 108.69 160.012 109.01 160.333 109.435C160.654 109.86 160.842 110.37 160.872 110.902C160.971 113.742 155.973 114.921 156.129 111.74H156.271C156.385 111.74 156.541 111.555 156.555 111.513C156.667 111.272 156.709 111.004 156.676 110.741C156.643 110.477 156.538 110.228 156.37 110.022H156.299ZM148.887 112.961C149.801 111.602 151.041 110.493 152.494 109.738C153.587 109.255 156.754 109.298 156.2 111.385C155.165 111.431 154.17 111.803 153.36 112.45C152.877 112.45 151.841 116.043 151.94 118.741C150.79 119.522 149.526 120.161 148.376 120.927C144.102 112.848 144.542 118.485 148.958 112.961H148.887ZM121.907 85.115C123.71 98.9174 121.325 99.1162 117.448 101.019C117.417 101.035 117.392 101.06 117.374 101.09C117.356 101.12 117.348 101.155 117.349 101.189C117.334 102.783 117.414 104.376 117.59 105.961C116.117 107.673 114.523 109.277 112.819 110.76C109.934 108.661 107.827 105.665 106.827 102.24C107.022 101.038 107.06 99.8165 106.94 98.605C107.821 98.605 108.744 98.4772 109.51 98.4346C109.667 98.4346 109.738 98.108 109.723 98.0796C109.196 96.5932 108.515 95.1656 107.693 93.8196C107.693 93.9616 107.409 94.3166 107.338 94.4586C107.325 94.4511 107.31 94.4472 107.295 94.4472C107.28 94.4472 107.266 94.4511 107.253 94.4586C104.711 94.4586 104.271 90.7666 106.557 90.6388C107.977 90.5536 107.977 92.1298 109.013 92.5558C109.027 92.5621 109.041 92.5654 109.056 92.5654C109.071 92.5654 109.085 92.5621 109.099 92.5558C109.795 92.7262 110.377 92.1014 110.519 91.363C110.703 90.1276 109.454 88.523 110.76 86.2226C115.545 87.1456 118.968 85.8534 121.921 85.115H121.907ZM105.151 83.5956C106.708 84.7966 108.512 85.6358 110.433 86.0522C109.312 87.6568 110.306 89.7442 110.306 90.7098C110.287 91.0676 110.152 91.4095 109.921 91.6837C109.691 91.9579 109.377 92.1494 109.028 92.2292C108.389 91.6186 108.204 90.7098 107.295 90.369C106.902 90.23 106.474 90.2212 106.075 90.3439C105.676 90.4666 105.327 90.7144 105.08 91.0506C104.875 91.4201 104.771 91.8377 104.782 92.2604C104.792 92.6831 104.915 93.0954 105.138 93.4545C105.361 93.8137 105.676 94.1067 106.05 94.3033C106.425 94.4998 106.845 94.5926 107.267 94.5722C106.926 95.2112 106.543 95.8076 106.159 96.4182C104.451 94.7747 103.405 92.5617 103.219 90.1984C103.033 87.8352 103.721 85.4859 105.151 83.5956ZM105.378 98.1364C106.253 96.9864 107.045 95.7765 107.75 94.5154C107.948 95.0266 108.999 97.3554 109.34 97.966C108.616 97.9802 105.96 98.0512 105.378 98.1364ZM106.656 98.9884C106.656 99.3292 106.315 102.084 106.656 102.283C107.017 104.091 107.735 105.809 108.769 107.335C109.803 108.862 111.132 110.166 112.677 111.172C114.668 109.758 116.418 108.032 117.86 106.06C117.885 106.046 117.906 106.025 117.921 106C117.936 105.975 117.944 105.947 117.945 105.918C117.945 105.662 117.945 105.137 117.86 104.498C124.591 110.533 127.033 113.174 132.827 124.619C132.926 124.804 133.153 124.705 133.182 124.534C137.129 121.694 140.679 118.3 144.897 115.787C146.317 118.258 147.737 120.615 149.157 123.1C145.806 129.22 138.777 138.138 133.849 139.671C130.413 140.736 126.522 137.868 125.414 136.831L125.329 136.917C126.384 138.121 127.68 139.089 129.135 139.757C127.956 145.167 129.902 151.259 131.833 156.229C132.798 158.699 134.971 161.909 134.517 164.749C134.147 160.801 129.163 158.117 110.93 157.109L112.18 147.68C113.06 143.122 111.243 137.257 111.683 126.593C112.322 111.47 116.568 110.079 119.649 106.429C119.66 106.419 119.67 106.407 119.676 106.393C119.682 106.379 119.686 106.364 119.687 106.349C119.687 106.334 119.685 106.319 119.68 106.304C119.675 106.29 119.667 106.277 119.656 106.266C119.646 106.255 119.634 106.246 119.62 106.239C119.606 106.233 119.591 106.229 119.576 106.229C119.561 106.228 119.546 106.23 119.532 106.235C119.517 106.241 119.504 106.249 119.493 106.259C114.878 110.419 112.393 112.762 111.442 124.037C110.604 133.693 112.322 141.219 111.939 146.374L95.4383 137.584C96.5601 120.615 96.9293 103.319 106.656 98.9884ZM71.8095 139.742C73.7975 137.996 75.6861 139.742 77.3617 141.39C75.2293 141.822 73.1316 142.411 71.0853 143.15C70.9372 142.565 70.9255 141.953 71.0511 141.362C71.1766 140.771 71.4361 140.217 71.8095 139.742ZM75.7713 169.222C82.1471 168.625 93.7343 164.209 93.7343 164.209C93.7343 164.209 94.1603 151.898 94.6715 151.003C95.1827 150.108 95.0975 151.003 95.0975 151.003C92.5415 188.463 102.453 199.155 102.453 199.155L116.44 215.84C115.438 216.169 114.456 216.558 113.501 217.005C109.891 210.471 105.25 204.563 99.7551 199.51C97.1481 197.09 94.2921 194.953 91.2351 193.134C88.1821 191.359 84.6889 189.684 81.0821 189.954C80.9827 189.783 81.3519 189.684 74.1383 192.382L75.7713 169.222ZM18.3465 237.382C22.898 234.414 27.6418 231.753 32.5465 229.415C35.1735 228.166 37.8573 227.016 40.5695 225.979C42.9977 225.042 45.5821 224.389 47.9535 223.352C59.6534 229.484 70.108 237.742 78.7817 247.705C70.9149 242.025 60.8045 239.938 51.5177 237.765C39.2915 234.882 32.4471 234.527 18.3465 237.438V237.382ZM17.6649 248.742C17.8069 248.671 40.4701 236.317 40.5837 236.175C48.3511 237.069 69.7363 241.571 79.3355 248.77C78.1001 248.77 53.9601 247.535 17.6649 248.813V248.742ZM17.9915 216.209C32.0779 209.583 46.3678 203.429 60.8613 197.749L61.6565 202.663L63.5877 202.734C63.8086 204.004 64.1656 205.246 64.6527 206.44C63.9427 206.44 63.4883 207.86 62.2245 209.28C61.3546 210.066 60.4025 210.757 59.3845 211.339C58.1349 212.248 58.4757 213.227 59.8389 213.668C62.2103 214.42 65.3485 213.014 67.5211 212.248C67.7721 211.464 68.0806 210.7 68.4441 209.961C69.2535 209.195 69.3955 211.58 69.3671 211.935C69.9995 212.048 70.6441 212.077 71.2841 212.02C71.6238 210.061 71.5415 208.052 71.0427 206.127H70.7445C70.91 205.113 70.9955 204.088 71.0001 203.06L73.3289 203.145L74.0673 192.779C80.9401 190.28 80.9401 190.408 81.0679 190.28C88.3667 190.436 95.2679 195.96 100.266 200.731C105.299 205.619 109.629 211.182 113.131 217.26C107.451 220.1 102.836 224.857 98.1931 229.004C91.3892 234.832 85.2248 241.367 79.8041 248.5C65.3201 231.46 40.2713 213.54 17.9915 216.28V216.209ZM67.4927 211.949C65.5898 212.583 63.6378 213.058 61.6565 213.369C61.0317 213.369 57.9503 213.369 59.4981 211.495C61.7051 210.509 63.4771 208.752 64.4823 206.553C66.637 206.874 68.8342 206.758 70.9433 206.213C70.9433 207.491 71.0995 206.539 71.0569 211.736C70.6392 211.731 70.2217 211.755 69.8073 211.807C69.9635 208.925 68.0749 208.584 67.4927 212.063V211.949ZM70.5031 206.085C68.6597 206.347 66.7983 206.461 64.9367 206.426C64.9367 206.426 64.3119 203.941 63.9569 202.734L70.7729 202.975C70.6167 204.097 70.4889 206.17 70.5031 206.198V206.085ZM173.084 232.113C166.992 236.018 162.15 241.627 156.47 246.058C150.078 250.852 144.089 256.161 138.564 261.933C129.955 256.805 120.819 252.621 111.314 249.452C103.39 247.023 88.1111 247.378 80.4857 248.642C90.5819 244.382 97.5967 243.786 107.65 244.851C117.704 245.916 124.591 247.506 133.537 253.371C134.133 253.768 143.903 243.899 163.57 227.91C166.807 229.302 169.932 230.807 173.084 232.227V232.113ZM176.989 216.919C162.15 228.421 147.666 240.307 133.92 253.087C133.913 253.056 133.899 253.028 133.879 253.003C133.86 252.979 133.835 252.959 133.807 252.945C125.869 247.662 117.036 245.447 107.65 244.425C97.7103 243.374 90.1133 243.942 80.1023 248.443C85.4883 241.772 91.3747 235.52 97.7103 229.742C107.806 220.512 111.002 217.942 116.71 216.067L122.901 223.48C123.812 223.302 124.689 222.981 125.5 222.528L127.459 224.673C127.388 224.673 127.033 224.758 127.033 224.886C126.664 229.586 126.778 228.365 124.903 231.659C124.625 232.056 124.492 232.538 124.528 233.022C124.565 233.506 124.767 233.963 125.102 234.314C125.187 234.314 132.5 228.294 132.472 228.251C132.443 228.208 131.606 225.241 132.585 225.184C133.31 225.184 134.218 227.115 134.289 227.087C134.62 226.952 134.927 226.765 135.198 226.533C134.802 224.612 134.05 222.782 132.983 221.137C132.983 221.137 132.713 221.25 132.671 221.293C132.316 220.214 131.946 219.135 131.535 218.07C132.486 217.189 133.082 216.564 133.082 216.564L131.18 212.304C138.743 211.197 146.424 211.154 153.999 212.177C166.978 213.838 168.156 213.824 176.989 217.033V216.919Z" fill="#9747FF"/>
<path d="M233.306 151.855V151.77H233.207C233.173 151.765 233.139 151.772 233.11 151.791C233.081 151.809 233.06 151.837 233.05 151.869L216.195 161.298C215.428 165.217 216.337 164.976 215.002 179.673C213.781 181.178 213.014 183.336 208.669 184.955C206.234 185.676 203.86 186.587 201.569 187.682C198.587 189.371 197.806 192.495 200.802 194.782C200.739 194.826 200.682 194.879 200.632 194.938L200.206 195.179C200.149 195.22 200.105 195.276 200.08 195.341C200.055 195.406 200.049 195.478 200.065 195.546C200.08 195.614 200.115 195.676 200.165 195.725C200.215 195.773 200.279 195.806 200.348 195.818C200.532 195.989 200.689 195.903 200.859 195.818C200.866 195.917 200.866 196.017 200.859 196.116C200.859 196.199 200.892 196.279 200.951 196.337C201.009 196.396 201.089 196.429 201.171 196.429C201.254 196.429 201.334 196.396 201.392 196.337C201.451 196.279 201.484 196.199 201.484 196.116V195.52L201.739 195.378C203.855 196.599 206.894 197.181 207.533 199.936C208.002 201.981 206.411 204.48 204.395 205.914C204.395 205.914 204.153 203.912 204.139 203.884C204.04 203.6 203.571 203.6 203.585 203.955V204.622L203.06 203.742C203.01 203.684 202.941 203.645 202.866 203.633C202.79 203.62 202.713 203.635 202.647 203.673C202.581 203.712 202.53 203.773 202.505 203.845C202.479 203.918 202.48 203.997 202.506 204.068C202.875 204.864 203.23 205.659 203.614 206.454C198.473 209.294 196.627 202.975 193.404 200.305C193.816 198.119 193.915 198.161 193.83 197.962C193.842 197.919 193.846 197.873 193.84 197.828C193.834 197.783 193.82 197.739 193.798 197.699C193.775 197.66 193.745 197.625 193.709 197.597C193.673 197.569 193.632 197.548 193.589 197.536C193.545 197.524 193.499 197.521 193.454 197.526C193.409 197.532 193.365 197.546 193.326 197.569C193.286 197.591 193.251 197.621 193.223 197.657C193.195 197.693 193.175 197.734 193.163 197.778C193.063 198.019 192.992 198.275 192.907 198.53C192.822 198.786 192.808 198.672 192.737 198.942L192.58 198.474C192.562 198.404 192.516 198.345 192.453 198.309C192.391 198.273 192.316 198.263 192.247 198.282C192.177 198.301 192.118 198.346 192.082 198.409C192.046 198.472 192.036 198.546 192.055 198.616C191.984 198.758 192.055 198.985 192.183 199.453C191.499 199.02 190.764 198.672 189.996 198.417C187.998 197.831 185.857 197.983 183.961 198.843C183.847 198.303 183.762 197.749 183.691 197.21C183.62 196.67 183.18 196.954 183.109 197.21C183.02 197.248 182.949 197.32 182.91 197.409C182.811 197.267 182.697 197.039 182.427 197.153C182.383 197.138 182.335 197.136 182.29 197.148C182.244 197.159 182.203 197.184 182.172 197.219C182.14 197.253 182.119 197.297 182.112 197.343C182.104 197.389 182.11 197.437 182.129 197.48C182.484 198.048 182.825 198.616 183.166 199.184C180.779 200.442 178.646 202.132 176.875 204.168C176.858 204.198 176.852 204.232 176.856 204.266C176.861 204.3 176.876 204.331 176.901 204.355C176.925 204.38 176.956 204.395 176.99 204.4C177.024 204.404 177.059 204.398 177.088 204.381C179.004 202.676 181.071 201.15 183.265 199.823C183.379 200.504 183.521 201.243 183.663 201.853C183.663 202.237 184.387 202.151 184.33 201.768C184.337 201.683 184.337 201.597 184.33 201.512C184.384 201.462 184.423 201.398 184.444 201.328L184.572 201.527C184.609 201.595 184.667 201.65 184.738 201.682C184.809 201.714 184.889 201.722 184.965 201.704C185.041 201.686 185.109 201.644 185.159 201.584C185.208 201.523 185.236 201.448 185.239 201.37V201.299C185.24 201.261 185.231 201.222 185.214 201.188C185.196 201.153 185.171 201.123 185.14 201.101C184.856 200.528 184.538 199.974 184.188 199.439C185.506 198.825 186.966 198.581 188.412 198.734C189.858 198.886 191.235 199.43 192.396 200.305V200.419C192.396 200.731 192.282 201.044 192.211 201.356C192.14 201.669 192.098 201.896 192.055 202.166C192.012 202.435 192.68 202.833 192.751 202.364V202.166C192.809 202.122 192.853 202.063 192.879 201.995L193.305 203.103C193.461 203.5 194.1 203.344 193.958 202.918C193.816 202.492 193.574 201.754 193.376 201.186C196.102 203.884 198.374 209.876 203.685 207.164C203.784 208.115 203.798 208.399 203.926 209.578C203.943 209.658 203.986 209.73 204.049 209.782C204.113 209.834 204.192 209.862 204.274 209.862C204.356 209.862 204.435 209.834 204.499 209.782C204.562 209.73 204.606 209.658 204.622 209.578C204.622 209.28 204.622 208.982 204.551 208.683C204.566 208.623 204.566 208.559 204.551 208.499C204.588 208.513 204.628 208.513 204.665 208.499C204.906 208.655 205.318 208.499 205.204 208.115C205.008 207.603 204.785 207.1 204.537 206.61C207.05 204.878 209.01 201.583 207.576 198.885C206.511 196.897 204.168 196.258 202.094 195.208C202.762 194.753 203.813 194.569 203.188 194.072C203.003 193.347 202.393 194.072 201.413 194.569V193.972C201.413 193.927 201.395 193.884 201.363 193.852C201.331 193.82 201.288 193.802 201.242 193.802C201.197 193.802 201.154 193.82 201.122 193.852C201.09 193.884 201.072 193.927 201.072 193.972C201.072 194.171 201.001 194.356 200.958 194.554C198.331 192.623 198.985 189.797 201.683 188.221C204.381 186.645 207.661 186.063 210.543 184.87C211.609 184.39 212.57 183.703 213.369 182.85C214.168 181.997 214.791 180.995 215.201 179.9L234.925 170.13C234.962 170.14 235.002 170.135 235.036 170.116C235.07 170.098 235.096 170.067 235.109 170.031C234.825 168.739 233.448 151.94 233.306 151.855ZM225.297 165.885L215.357 179.602C215.641 177.017 216.777 164.521 216.38 161.412L225.326 165.885L233.107 152.238C233.431 158.145 234.052 164.031 234.967 169.875L225.297 165.885ZM26.696 181.32L25.1482 178.75L24.5802 181.547L22.0242 182.115L24.0406 183.549L23.4442 186.276L25.8298 184.316L28.6272 185.594L27.335 183.024L29.039 180.922L26.696 181.32ZM174.845 178.892L172.658 175.413L171.848 179.204L168.185 179.971L171.053 181.916L170.215 185.623L173.609 182.953L177.599 184.7L175.753 181.221L178.167 178.352L174.845 178.892ZM74.8198 29.3374C76.3534 29.593 78.313 29.2522 79.1792 30.8284L78.7532 31.1266C78.6669 31.521 78.7222 31.9333 78.9094 32.291C79.1709 32.8495 79.5419 33.3497 80.0005 33.762C80.4591 34.1742 80.9959 34.4901 81.579 34.6908L81.9056 34.6056C82.715 35.131 83.8226 35.5002 84.5894 34.6766C85.3562 33.853 84.845 32.5466 84.8592 32.5182C86.4922 30.2604 83.0984 28.102 83.0984 28.102L82.7008 28.386C81.1956 25.546 85.2568 22.8196 81.7068 17.9206C77.5746 12.2406 66.5696 14.8676 69.722 24.5094C70.0408 25.7076 70.6863 26.7936 71.5865 27.6461C72.4867 28.4987 73.6061 29.0842 74.8198 29.3374ZM80.3862 30.0048C78.5191 28.1427 76.5057 26.4332 74.3654 24.8928C74.9618 25.0348 75.3168 25.3472 75.7854 24.8218V24.623C76.3392 23.203 76.68 24.694 77.4042 23.6148V23.3166C77.8018 22.7486 77.745 23.2172 78.1284 23.1746C78.3112 23.1859 78.4944 23.1618 78.668 23.1036C79.1082 22.9048 79.023 22.1948 79.7898 22.28C80.1357 24.638 80.7503 26.9487 81.6216 29.167L80.3862 30.0048ZM84.49 32.9726C84.6044 33.2414 84.6411 33.537 84.5959 33.8257C84.5508 34.1143 84.4255 34.3845 84.2344 34.6056C83.638 35.1594 82.8144 34.847 82.2464 34.4778C83.0962 34.1478 83.8624 33.6337 84.49 32.9726ZM82.5872 20.9452C83.212 23.7852 80.94 26.6252 82.3742 28.6132L81.9056 28.9398C80.656 24.8076 79.2502 18.4318 79.6904 21.925C78.3556 21.8398 78.6822 22.3794 78.4408 22.5782C78.1994 22.777 77.5462 22.5782 77.106 22.7912C76.9782 22.7912 77.106 23.0894 76.9782 23.1462C76.112 24.055 76.3818 23.3876 75.6576 23.629C75.3878 23.7284 75.3736 23.7994 75.2458 24.0266C75.118 24.2538 75.5866 24.5236 75.118 24.7792C75.118 24.7792 74.337 24.6656 74.0388 24.6514C71.1988 22.4362 77.2196 27.889 79.9886 30.3314L79.4206 30.729C77.7592 27.4062 70.4178 31.652 69.6368 21.7972C69.012 13.618 80.94 13.2346 82.5872 20.9452ZM184.16 245.447C184.127 245.778 184.211 246.11 184.398 246.385C184.585 246.66 184.863 246.861 185.182 246.952C186.801 247.08 186.943 245.916 186.943 245.916L187.667 243.218L184.827 242.92L184.16 245.447ZM74.479 7.24219C74.479 7.02919 74.0672 7.05759 74.0956 7.24219C74.2566 8.78537 74.5127 10.3172 74.8624 11.8288C75.0328 12.3258 75.9842 12.4394 74.479 7.24219ZM82.218 15.2794C82.8468 14.1643 83.3243 12.9705 83.638 11.7294C83.6333 11.6923 83.6188 11.657 83.5961 11.6273C83.5734 11.5975 83.5433 11.5743 83.5087 11.5599C83.4741 11.5455 83.4364 11.5404 83.3993 11.5453C83.3622 11.5501 83.327 11.5646 83.2972 11.5874C82.6044 12.6688 82.0734 13.8456 81.721 15.0806C81.6358 15.3504 82.0902 15.6202 82.218 15.2794ZM66.4702 15.819C66.5014 15.831 66.5351 15.8349 66.5682 15.8305C66.6013 15.826 66.6327 15.8133 66.6596 15.7935C66.6865 15.7737 66.708 15.7474 66.722 15.7171C66.7361 15.6869 66.7423 15.6535 66.74 15.6202C65.7901 14.1566 64.6908 12.7956 63.4598 11.559C63.3036 11.4312 63.0338 11.559 63.1616 11.7862C63.6728 12.4252 65.8312 15.18 66.4702 15.819ZM60.2648 25.7732C64.9934 25.12 64.5248 24.3532 64.1982 24.3532C62.7782 24.5236 61.5002 25.0916 60.1512 25.3614C59.8672 25.404 59.995 25.8158 60.2648 25.7732ZM69.864 31.3822C69.9918 31.2118 69.7788 30.9562 69.58 31.0272C68.4529 31.7315 67.3801 32.5195 66.3708 33.3844C66.1436 33.569 66.3708 33.9382 66.669 33.782C67.7907 33.0604 68.8585 32.2584 69.864 31.3822ZM74.8198 32.7312C74.5784 33.924 74.621 35.1878 74.4506 36.3948C74.4506 36.693 74.8624 36.835 74.9192 36.5226C75.2378 35.2856 75.3529 34.0051 75.26 32.7312C75.26 32.6728 75.2369 32.6168 75.1956 32.5756C75.1543 32.5343 75.0983 32.5111 75.0399 32.5111C74.9816 32.5111 74.9256 32.5343 74.8843 32.5756C74.843 32.6168 74.8198 32.6728 74.8198 32.7312ZM69.4948 49.3736C69.8367 49.4022 70.1807 49.3576 70.504 49.2428C70.8273 49.1279 71.1224 48.9455 71.3696 48.7077C71.6168 48.4699 71.8105 48.1821 71.9378 47.8635C72.0651 47.5449 72.123 47.2029 72.1076 46.8602C71.852 43.3528 66.8536 43.8072 66.7258 46.6756C66.7615 47.3918 67.0668 48.068 67.5804 48.5685C68.094 49.0689 68.7779 49.3565 69.4948 49.3736ZM71.5112 46.5336C71.5823 46.8272 71.5824 47.1335 71.5116 47.4271C71.4408 47.7208 71.3011 47.9934 71.1041 48.2223C70.907 48.4513 70.6583 48.63 70.3785 48.7438C70.0986 48.8576 69.7957 48.9031 69.4948 48.8766C68.9228 48.8887 68.3664 48.6899 67.9317 48.318C67.4969 47.9461 67.2143 47.4272 67.1376 46.8602C67.1684 46.3265 67.391 45.822 67.7645 45.4396C68.138 45.0572 68.6372 44.8228 69.17 44.7795C69.7027 44.7363 70.2332 44.8872 70.6635 45.2043C71.0938 45.5214 71.3949 45.9835 71.5112 46.5052V46.5336ZM135.298 78.3842C135.411 78.725 150.222 79.364 153.488 79.293C153.063 79.6905 152.76 80.2006 152.614 80.7638C152.468 81.327 152.486 81.9201 152.664 82.4738C153.09 83.5388 154.425 83.7518 155.419 83.8938C160.744 84.6038 166.041 85.6688 171.934 84.476C179.971 82.8572 175.711 74.8768 170.869 78.5546C171.049 77.5121 170.915 76.4394 170.482 75.474C170.049 74.5086 169.338 73.6945 168.439 73.1361C167.54 72.5777 166.495 72.3004 165.438 72.3399C164.381 72.3793 163.359 72.7336 162.505 73.3574C162.505 69.7364 157.137 66.7118 154.865 69.9636C155.447 64.7948 150.861 61.543 145.905 62.5086C140.58 63.5168 139.629 69.5802 142 73.6698C141.28 73.0869 140.389 72.7547 139.464 72.7235C138.538 72.6923 137.627 72.9637 136.869 73.4967C136.111 74.0297 135.548 74.7952 135.264 75.6771C134.981 76.5591 134.993 77.5095 135.298 78.3842ZM162.789 73.6982C166.623 71.412 170.755 73.6982 170.386 78.9664C170.386 78.9664 170.741 79.1084 170.769 79.08C175.299 75.4448 178.991 82.417 172.402 83.9222C167.049 85.1434 160.616 84.3482 155.121 83.3826C150.861 82.63 154.07 76.9784 157.293 79.1936C157.535 79.364 157.62 77.4186 159.225 77.4044C160.006 77.4044 161.071 77.6742 161.326 78.4978C161.326 78.4978 161.61 78.1286 161.582 78.0434C161.213 76.453 161.198 74.6496 162.789 73.6982ZM154.269 70.4748C154.269 70.7588 154.709 70.56 154.723 70.4748C157.293 67.1378 161.823 70.063 161.965 73.613C161.401 74.0304 160.995 74.6275 160.814 75.3061C160.633 75.9848 160.689 76.7046 160.971 77.3476C159.551 76.3962 157.265 76.808 157.109 78.7676C156.863 78.5533 156.577 78.3902 156.267 78.2876C155.958 78.1851 155.631 78.1452 155.306 78.1703C154.981 78.1954 154.664 78.285 154.373 78.4339C154.083 78.5828 153.826 78.7879 153.616 79.0374C147.936 78.2422 136.292 78.3132 135.681 78.0434C135.07 77.7736 135.681 75.4874 136.107 74.8058C136.459 74.3417 136.908 73.9609 137.424 73.6903C137.939 73.4197 138.508 73.2661 139.09 73.2403C139.671 73.2146 140.251 73.3173 140.789 73.5413C141.326 73.7652 141.808 74.1048 142.199 74.536C142.426 74.7348 142.497 74.1668 142.483 74.1526C135.894 59.129 156.328 59.9526 154.34 70.4748H154.269ZM169.775 45.7526C169.514 43.9049 168.748 42.1652 167.56 40.7258C162.136 35.7842 150.804 41.237 156.47 52.0858C157.101 53.0787 157.798 54.0275 158.557 54.9258C159.835 56.7718 160.417 60.904 160.687 63.1334C160.687 63.1899 160.71 63.2441 160.75 63.284C160.79 63.3239 160.844 63.3464 160.9 63.3464H164.976C165.643 63.3464 164.763 58.2628 165.6 55.9482C166.822 52.3982 170.727 49.97 169.775 45.7526ZM161.113 39.462C162.05 39.2651 163.017 39.2651 163.953 39.462C164.929 42.0954 165.359 44.8997 165.218 47.7045C165.076 50.5093 164.366 53.256 163.13 55.7778H161.979C160.745 53.2565 160.031 50.5118 159.882 47.7082C159.734 44.9047 160.152 42.0999 161.113 39.462ZM156.441 50.9356C154.752 46.6756 154.723 42.9694 158.543 40.527C156.214 43.5516 156.768 51.5604 161.383 55.792C160.73 55.792 160.091 55.5932 159.438 55.5222C158.342 54.0591 157.341 52.5271 156.441 50.9356ZM164.635 62.9772C163.726 63.0766 162.846 62.9772 161.937 62.9772C161.028 62.9772 161.213 63.4742 160.744 60.5206C162.122 60.7404 163.526 60.7404 164.905 60.5206C164.927 61.3479 164.836 62.1744 164.635 62.9772ZM164.905 60.1372C163.485 60.3218 162.065 60.1372 160.645 60.2792C160.333 58.7265 159.925 57.1947 159.423 55.6926C161.302 56.3314 163.335 56.3612 165.231 55.7778C164.88 57.2073 164.77 58.6855 164.905 60.1514V60.1372ZM165.43 55.3802C164.953 55.4292 164.479 55.5051 164.01 55.6074C168.582 51.1202 168.795 43.2818 166.58 40.4702C168.838 42.0464 170.286 47.0164 168.923 49.7428C167.929 51.7024 166.339 53.3354 165.487 55.4228L165.43 55.3802ZM177.017 65.874C177.315 66.584 177.585 62.0826 180.652 61.6992C180.766 61.6992 180.865 61.5856 180.766 61.4862C180.141 60.8756 178.395 60.8472 178.182 57.07C178.182 56.9138 177.883 56.857 177.883 57.07C177.798 61.33 172.573 61.4578 173.623 61.7702C176.208 62.4802 176.648 65.0078 177.017 65.874ZM178.025 58.2202C178.066 58.8765 178.263 59.5134 178.602 60.077C178.941 60.6406 179.41 61.1143 179.971 61.4578C179.274 61.8412 178.663 62.3625 178.175 62.99C177.687 63.6174 177.331 64.3378 177.131 65.1072C176.896 64.3666 176.515 63.6807 176.01 63.0904C175.505 62.5 174.887 62.0173 174.191 61.6708C175.076 61.4791 175.894 61.0599 176.567 60.4547C177.239 59.8495 177.742 59.0793 178.025 58.2202ZM195.719 81.636C195.605 81.636 195.633 81.8632 195.719 81.8916C196.517 82.0678 197.232 82.5089 197.747 83.1432C198.263 83.7774 198.549 84.5675 198.559 85.3848C198.559 85.4842 198.772 85.5126 198.8 85.3848C198.828 85.257 198.8 82.5448 200.561 81.494C200.674 81.494 200.731 81.1816 200.561 81.1958C198.63 81.4798 197.508 77.6316 197.494 77.5748C197.479 77.518 197.21 77.4896 197.252 77.5748C197.414 78.3275 197.356 79.1109 197.084 79.8312C196.812 80.5515 196.338 81.1781 195.719 81.636ZM197.763 78.796C198.218 79.932 198.956 81.352 200.064 81.5366C199.379 82.1963 198.922 83.0566 198.757 83.9932C198.292 82.9682 197.447 82.1639 196.4 81.7496C197.209 80.9531 197.694 79.8861 197.763 78.7534V78.796ZM101.104 59.981V60.1088C101.81 60.2382 102.459 60.5791 102.966 61.0864C103.474 61.5936 103.815 62.2432 103.944 62.9488C103.953 62.9772 103.971 63.0019 103.996 63.0195C104.02 63.037 104.049 63.0464 104.079 63.0464C104.109 63.0464 104.138 63.037 104.162 63.0195C104.186 63.0019 104.205 62.9772 104.214 62.9488C104.611 61.6566 104.881 60.265 107.054 59.9526C107.139 59.9526 107.167 59.768 107.054 59.768C104.484 59.5124 103.987 56.3316 103.887 56.1044C103.788 55.8772 103.646 56.1044 103.66 56.1044C104.043 58.5184 101.871 59.5408 101.104 59.981ZM104.058 57.3682C104.231 57.9004 104.516 58.3896 104.893 58.8033C105.27 59.217 105.731 59.5459 106.244 59.768C105.746 59.9851 105.303 60.3106 104.947 60.7209C104.591 61.1311 104.33 61.6158 104.185 62.1394C103.944 61.5963 103.575 61.1193 103.111 60.7486C102.646 60.3779 102.099 60.1243 101.516 60.0094C102.125 59.8141 102.676 59.4705 103.12 59.0095C103.564 58.5485 103.886 57.9845 104.058 57.3682ZM233.562 111.626C232.142 106.742 231.943 102.198 231.375 102.766C229.586 104.541 225.695 108.062 225.695 108.076C225.695 108.091 230.878 110.576 233.192 111.882C233.249 111.925 233.604 111.754 233.562 111.626ZM226.249 107.991C228.144 106.525 229.89 104.874 231.46 103.064C231.625 105.878 232.165 108.657 233.065 111.328C230.736 110.093 228.521 109.34 226.249 107.991ZM220.1 111.03C219.712 112.43 219.413 113.852 219.205 115.29C219.205 115.588 219.603 115.716 219.66 115.418C220.032 113.973 220.251 112.492 220.313 111.002C220.302 110.98 220.286 110.963 220.265 110.952C220.244 110.941 220.22 110.937 220.196 110.94C220.173 110.943 220.151 110.953 220.134 110.969C220.117 110.986 220.105 111.007 220.1 111.03ZM218.084 121.51C218.543 120.121 218.885 118.696 219.106 117.25C219.106 117.065 218.85 117.051 218.794 117.25C218.338 118.61 217.996 120.007 217.771 121.424C217.773 121.46 217.786 121.495 217.809 121.523C217.831 121.551 217.862 121.571 217.897 121.58C217.931 121.59 217.968 121.588 218.002 121.575C218.035 121.562 218.064 121.54 218.084 121.51ZM223.21 117.974C223.263 117.99 223.32 117.987 223.371 117.964C223.422 117.941 223.462 117.901 223.485 117.85C223.508 117.799 223.511 117.742 223.495 117.689C223.478 117.636 223.442 117.591 223.394 117.562C222.271 116.991 221.063 116.608 219.816 116.426C218.779 116.44 222.5 117.86 223.21 117.974ZM217.856 115.631C216.621 115.29 215.4 114.85 214.164 114.523C213.895 114.523 212.929 114.793 217.714 116.156C217.784 116.175 217.858 116.165 217.921 116.129C217.984 116.093 218.029 116.034 218.048 115.964C218.067 115.895 218.057 115.821 218.021 115.758C217.985 115.695 217.926 115.65 217.856 115.631ZM181.888 133.963C179.857 135 178.153 138.393 178.92 140.594C178.92 140.594 179.034 140.694 179.062 140.708C182.47 141.049 203.202 141.02 210.046 140.878C210.095 140.877 210.143 140.863 210.184 140.836C210.226 140.81 210.259 140.773 210.281 140.729C210.303 140.686 210.312 140.637 210.309 140.588C210.305 140.539 210.288 140.492 210.259 140.452C210.48 139.5 210.389 138.502 210.001 137.605C209.612 136.708 208.946 135.959 208.101 135.468C207.154 135.108 206.14 134.954 205.129 135.018C204.117 135.081 203.131 135.361 202.236 135.837C203.216 134.091 202.236 132.16 201.044 130.654C199.624 128.808 198.062 127.033 195.605 126.863C193.433 126.571 191.229 127.076 189.4 128.283C187.596 129.788 187.752 132.003 188.065 134.091C186.702 132.231 183.72 133.026 181.888 133.963ZM189.456 128.993C190.198 128.316 191.075 127.805 192.029 127.492C192.983 127.179 193.993 127.072 194.991 127.178C195.99 127.284 196.954 127.601 197.821 128.107C198.688 128.613 199.438 129.297 200.021 130.115C201.328 131.734 203.117 134.006 201.541 136.05C201.356 136.292 201.981 136.249 201.995 136.235C208.172 134.29 209.748 136.405 209.848 140.353C203.06 140.736 180.652 140.225 179.105 140.452C178.664 133.707 186.205 131.932 188.292 134.971C188.377 135.099 188.562 134.971 188.434 134.73C188.235 132.827 188.008 130.47 189.456 128.993ZM204.239 152.991C204.395 152.892 204.239 152.65 204.168 152.693C201.754 153.545 200.348 150.108 200.248 149.966C200.149 149.824 199.993 149.966 200.035 150.052C200.703 151.727 200.504 153.701 198.615 154.411C198.59 154.42 198.569 154.436 198.553 154.458C198.538 154.479 198.53 154.505 198.53 154.532C198.53 154.558 198.538 154.584 198.553 154.606C198.569 154.627 198.59 154.644 198.615 154.652C199.413 154.533 200.227 154.699 200.915 155.119C201.603 155.54 202.121 156.189 202.378 156.953C202.378 157.123 202.719 157.095 202.705 156.953C202.691 156.811 202.293 154.127 204.239 152.991ZM202.322 155.973C202.004 155.507 201.581 155.122 201.088 154.849C200.595 154.575 200.045 154.42 199.482 154.397C199.93 154.043 200.276 153.576 200.485 153.045C200.695 152.514 200.76 151.937 200.674 151.372C200.962 151.881 201.373 152.311 201.869 152.621C202.365 152.931 202.931 153.112 203.514 153.147C203.14 153.517 202.841 153.956 202.637 154.441C202.432 154.926 202.325 155.447 202.322 155.973ZM148.617 208.257C151.869 198.403 159.736 189.797 168.27 184.117C168.54 183.933 168.27 183.507 168.014 183.677C150.321 195.449 147.552 211.58 148.617 208.257ZM143.221 198.218C148.063 190.82 152.735 187.852 160.474 183.72C160.772 183.564 160.474 183.123 160.219 183.28C153.644 186.56 146.388 191.317 143.079 198.133C143.074 198.151 143.074 198.171 143.081 198.188C143.088 198.206 143.1 198.221 143.117 198.231C143.133 198.241 143.152 198.245 143.171 198.243C143.19 198.24 143.208 198.232 143.221 198.218ZM165.26 177.784C165.927 177.699 165.359 176.719 159.324 178.097C146.445 180.937 143.463 186.872 144.158 186.105C150.364 179.318 159.509 178.523 165.26 177.784ZM35.0456 151.23C33.0292 152.295 31.453 150.691 30.9134 148.873C30.9134 148.731 30.6152 148.745 30.6294 148.873C30.9986 153.332 37.8146 153.218 36.8206 147.453C36.1201 144.551 34.9291 141.789 33.299 139.288C29.7064 133.168 26.5256 130.938 27.1646 131.734C30.8566 136.32 40.0724 148.589 35.0456 151.23ZM51.6312 159.125C52.4832 158.6 52.0146 157.265 52.0998 156.456C52.0998 156.257 51.8016 156.229 51.759 156.456C51.7048 156.87 51.6716 157.287 51.6596 157.705C51.3756 159.125 50.0124 158.742 49.061 158.288C47.5901 157.426 46.3481 156.223 45.44 154.78C43.6082 152.238 42.0178 149.498 40.4274 146.814C30.4874 130.243 29.7774 131.279 29.9762 131.521C34.861 137.868 38.6382 144.84 42.8556 151.628C44.4318 154.184 46.15 157.393 49.0326 158.728C49.7 159.04 50.9212 159.551 51.6312 159.125ZM36.2242 135.965C36.1248 135.837 35.9118 135.965 35.997 136.136C42.8272 145.905 41.7338 142.597 36.2242 135.965ZM20.8882 126.153C17.8494 130.74 23.1602 132.87 23.1602 132.87C22.7708 132.3 22.6169 131.602 22.7307 130.922C22.8446 130.242 23.2173 129.632 23.7708 129.22C24.1791 129.5 24.6061 129.752 25.0488 129.973C26.3794 129.512 27.5681 128.714 28.4994 127.658C28.347 127.133 28.1424 126.624 27.8888 126.139C28.4824 125.743 29.2073 125.596 29.9081 125.729C30.6089 125.861 31.2298 126.264 31.6376 126.849C31.6376 126.849 31.6376 120.942 25.9576 122.347C19.6244 111.229 9.72704 107.508 19.88 124.477C20.1498 125.045 20.5048 125.599 20.8882 126.153ZM19.5534 114.921C21.158 116.71 24.4524 118.499 28.1728 127.459C27.2271 128.332 26.1891 129.098 25.0772 129.746C18.7156 122.958 19.1132 121.637 16.401 117.179L19.5534 114.921ZM52.9518 89.9998C50.1118 90.4258 45.653 93.5214 46.7322 96.8868C45.8342 96.1611 44.7262 95.7442 43.5725 95.6982C42.4188 95.6522 41.281 95.9793 40.328 96.6312C39.1677 97.5215 38.3245 98.7615 37.923 100.168C37.5216 101.574 37.5831 103.072 38.0986 104.441H63.5308C65.959 104.441 66.7684 93.3936 58.3052 96.7448C58.636 95.9332 58.7449 95.0483 58.6209 94.1808C58.497 93.3132 58.1445 92.4943 57.5997 91.8078C57.0549 91.1214 56.3373 90.5922 55.5206 90.2745C54.7038 89.9568 53.8173 89.862 52.9518 89.9998ZM58.0354 97.2986C62.5226 94.4586 66.8678 99.244 63.5876 104.157C63.5876 104.157 39.7884 103.816 38.4962 104.072C36.281 96.972 43.9348 93.5356 47.1156 97.7956C47.215 97.9376 47.1156 97.327 47.002 97.1708C45.6814 92.4564 53.7044 87.9124 57.1266 91.7038C59.3986 94.203 57.368 97.7388 58.0354 97.2986ZM29.9762 58.9302C29.8917 59.0749 29.8402 59.2365 29.8255 59.4034C29.8107 59.5704 29.8331 59.7385 29.891 59.8958C29.3656 60.478 30.2744 62.1536 31.6376 61.2306C34.0163 62.223 36.5283 62.8594 39.0926 63.1192C38.3684 65.4196 36.707 71.4546 38.7802 72.6758C40.8534 73.897 43.736 66.9958 44.588 64.9368C45.1904 64.7292 45.749 64.4114 46.2352 63.9996C49.8562 64.2978 57.7656 64.5534 55.3374 61.0176C54.3576 59.5976 48.7486 58.5326 47.0446 58.2628C47.996 55.3518 50.552 46.633 46.3062 48.3228C44.5028 49.0186 42.7846 53.2502 41.5918 56.218C40.821 56.3966 40.1168 56.7905 39.5612 57.354C37.2466 57.1268 30.9276 56.8002 29.9762 58.9302ZM47.1582 58.5894C48.8054 58.845 54.4428 60.0094 55.0392 61.188C56.658 64.2836 49.9698 63.7156 46.6754 63.531C47.329 62.8984 47.7364 62.0541 47.8248 61.1489C47.9132 60.2437 47.677 59.3365 47.1582 58.5894ZM46.3914 48.6494C49.8562 47.6412 47.6126 54.7838 46.6044 58.0072C46.0238 57.3633 45.3034 56.8609 44.4985 56.5384C43.6937 56.216 42.8257 56.0821 41.961 56.147C42.6 54.5708 44.8152 49.0754 46.3914 48.621V48.6494ZM44.1052 65.1214C40.1434 75.9702 36.0822 74.0958 39.4192 63.318C39.9014 64.0828 40.6196 64.6698 41.4651 64.99C42.3106 65.3103 43.2374 65.3464 44.1052 65.093V65.1214ZM39.3482 57.6948C38.8477 58.4209 38.553 59.2689 38.4955 60.1489C38.438 61.029 38.6198 61.9081 39.0216 62.6932C39.0216 62.6932 33.1144 61.7702 31.9216 60.9608C32.3902 60.5206 32.0636 59.2994 30.3454 59.5408C30.0614 58.7598 31.1974 58.3196 31.6944 58.1208C34.1898 57.4597 36.7922 57.3052 39.3482 57.6664V57.6948ZM28.7834 40.953C29.4614 41.2432 30.0566 41.6976 30.5152 42.2752C30.9738 42.8528 31.2814 43.5354 31.4104 44.2616C31.7938 45.071 31.4104 41.0666 33.6682 40.8962C33.7676 40.8962 33.8244 40.7258 33.6682 40.669C32.6742 40.1578 31.2968 40.0016 30.4164 36.0824C30.4164 35.8552 29.962 35.9688 30.0756 36.1818C30.956 37.8858 28.755 40.7542 28.7408 40.7542C28.7145 40.7598 28.6914 40.7757 28.6768 40.7984C28.6621 40.821 28.6571 40.8485 28.6627 40.8749C28.6684 40.9012 28.6843 40.9243 28.7069 40.9389C28.7295 40.9536 28.7571 40.9586 28.7834 40.953ZM30.5442 37.7438C30.7003 38.3921 30.9959 38.9985 31.4104 39.5209C31.8248 40.0433 32.3482 40.469 32.944 40.7684C32.5105 41.0033 32.1414 41.3412 31.869 41.7522C31.5967 42.1632 31.4295 42.6348 31.382 43.1256C31.2203 42.5515 30.9089 42.0307 30.4798 41.6165C30.0506 41.2023 29.5191 40.9096 28.9396 40.7684C29.8209 39.986 30.3906 38.9122 30.5442 37.7438ZM28.5846 25.5602C31.131 24.9803 33.6358 24.2307 36.0822 23.3166C37.6016 24.0834 31.6518 17.6366 29.394 16.0746C29.2946 16.0036 29.181 16.1598 29.252 16.245C28.8118 19.2576 28.5274 22.291 28.4 25.333C28.4 25.333 28.5278 25.5602 28.5846 25.5602ZM29.4082 16.387C34.2078 21.2008 33.9238 21.428 35.7414 23.0184C33.4126 23.771 31.1122 24.7508 28.7408 25.3188C28.9112 22.3226 29.1242 19.3406 29.4082 16.3728V16.387ZM28.1018 100.252C28.1263 100.282 28.1618 100.301 28.2004 100.305C28.239 100.309 28.2776 100.298 28.3077 100.273C28.3379 100.249 28.357 100.214 28.361 100.175C28.365 100.136 28.3535 100.098 28.329 100.068C28.2058 99.3625 28.2621 98.6377 28.4929 97.9602C28.7237 97.2826 29.1216 96.6742 29.6496 96.191C29.82 96.0348 29.6496 95.7082 29.4934 95.8218C27.1646 97.114 25.5316 94.5012 25.5032 94.4018C25.4748 94.3024 25.205 94.4018 25.2618 94.5012C26.3552 97.3412 24.6938 98.4062 23.9696 98.7612C23.8986 98.7612 23.9696 98.9316 23.9696 98.9032C24.7021 98.5686 25.5335 98.5217 26.2989 98.7715C27.0644 99.0214 27.7079 99.5499 28.1018 100.252ZM25.8156 95.3674C26.2121 95.8123 26.7188 96.1449 27.2846 96.3319C27.8505 96.5188 28.4555 96.5535 29.039 96.4324C28.2883 97.2653 27.8778 98.3499 27.8888 99.4712C27.5494 99.099 27.1267 98.8124 26.6553 98.6347C26.184 98.457 25.6773 98.3933 25.1766 98.4488C25.5376 98.0326 25.7859 97.5308 25.8977 96.9914C26.0096 96.4519 25.9813 95.8928 25.8156 95.3674ZM45.7382 127.459C45.6672 127.459 45.7382 127.601 45.7382 127.601C46.446 127.243 47.2646 127.172 48.0237 127.402C48.7828 127.632 49.4239 128.146 49.8136 128.837C49.913 128.979 50.1118 128.837 50.0408 128.652C49.9364 127.948 50.0017 127.228 50.2314 126.554C50.4611 125.88 50.8485 125.27 51.3614 124.776C51.5176 124.619 51.3614 124.321 51.2052 124.406C50.851 124.581 50.4654 124.682 50.0712 124.705C49.677 124.728 49.2822 124.672 48.9102 124.539C48.5382 124.407 48.1965 124.201 47.9053 123.935C47.6142 123.668 47.3794 123.345 47.215 122.986C47.215 122.859 46.9168 122.986 46.9736 123.086C48.1664 125.926 46.4766 127.033 45.7382 127.459ZM47.5842 123.952C47.9807 124.397 48.4874 124.73 49.0532 124.916C49.6191 125.103 50.2241 125.138 50.8076 125.017C50.1298 125.889 49.7424 126.952 49.7 128.056C49.3665 127.676 48.9446 127.384 48.4717 127.206C47.9987 127.027 47.4891 126.968 46.9878 127.033C47.3416 126.613 47.582 126.109 47.6864 125.57C47.7908 125.031 47.7556 124.474 47.5842 123.952ZM20.2492 143.988C20.2737 144.018 20.3092 144.037 20.3478 144.041C20.3864 144.045 20.425 144.034 20.4551 144.009C20.4853 143.985 20.5044 143.95 20.5084 143.911C20.5124 143.872 20.5009 143.834 20.4764 143.804C20.1782 142.284 20.4764 141.659 21.8254 139.955C21.9674 139.785 21.8254 139.501 21.6692 139.586C21.3147 139.765 20.9276 139.87 20.5313 139.895C20.1351 139.92 19.7378 139.865 19.3636 139.732C18.9894 139.599 18.6459 139.392 18.354 139.123C18.062 138.854 17.8276 138.528 17.6648 138.166C17.6648 138.038 17.3808 138.166 17.4376 138.266C17.6534 138.631 17.7913 139.037 17.8428 139.458C17.8943 139.879 17.8583 140.307 17.737 140.713C17.6156 141.12 17.4117 141.497 17.1378 141.821C16.8639 142.145 16.5261 142.409 16.1454 142.597V142.739C16.8603 142.387 17.6821 142.321 18.4442 142.553C19.2063 142.785 19.8516 143.298 20.2492 143.988ZM17.9772 139.16C18.3715 139.604 18.8757 139.936 19.4391 140.123C20.0024 140.31 20.6051 140.345 21.1864 140.225C20.8035 140.634 20.5049 141.113 20.3075 141.637C20.1101 142.161 20.018 142.719 20.0362 143.278C19.6996 142.906 19.2799 142.617 18.8112 142.437C18.3424 142.257 17.8378 142.19 17.3382 142.242C17.6968 141.824 17.9436 141.322 18.0553 140.783C18.1671 140.244 18.1402 139.686 17.9772 139.16ZM30.814 183.436C34.3959 184.583 37.6724 186.525 40.399 189.116C42.8727 191.688 45.1914 194.405 47.3428 197.252C47.4848 197.423 47.7404 197.252 47.6268 197.039C44.0484 190.806 37.8856 185.111 30.8424 183.322C30.7714 183.308 30.7572 183.422 30.814 183.436ZM47.215 186.801C47.3712 186.886 47.5558 186.659 47.4138 186.546C44.8344 184.107 41.4845 182.645 37.9424 182.413C37.7862 182.413 37.7862 182.655 37.9424 182.669C41.5492 182.925 44.2898 184.927 47.215 186.801ZM47.783 180.922C45.2554 179.149 42.3183 178.048 39.2479 177.723C36.1776 177.398 33.075 177.858 30.2318 179.062C30.1324 179.062 30.2318 179.275 30.2318 179.247C33.0875 178.276 36.1211 177.944 39.1192 178.273C42.1172 178.601 45.0067 179.583 47.5842 181.15C47.6144 181.176 47.6537 181.189 47.6937 181.187C47.7336 181.184 47.7709 181.166 47.7972 181.135C47.8236 181.105 47.8369 181.066 47.8343 181.026C47.8316 180.986 47.8132 180.949 47.783 180.922ZM191.984 216.238C191.16 218.197 189.385 222.046 189.371 222.074C187.593 228.35 186.199 234.728 185.196 241.173C185.196 241.173 188.036 241.698 188.036 241.67C189.996 235.337 191.075 228.691 192.836 222.33C192.836 222.33 192.211 216.337 192.225 216.309C192.24 216.28 192.027 216.11 191.984 216.238ZM192.112 216.607C192.083 217.023 192.083 217.441 192.112 217.857H191.657C191.856 217.388 191.984 216.99 192.112 216.607ZM185.367 240.946C186.19 237.481 189.172 224.985 189.627 222.216C189.627 222.216 190.507 222.117 190.947 222.117C189.201 228.336 186.545 241.074 186.545 241.088C186.159 240.995 185.764 240.947 185.367 240.946ZM187.923 241.315L186.801 241.13C188.221 234.811 191.16 222.117 191.16 222.102C191.645 222.161 192.122 222.275 192.58 222.443C191.373 225.312 188.704 238.049 187.923 241.315ZM189.613 221.932C190.365 220.724 191.015 219.456 191.558 218.141C191.765 218.21 191.979 218.253 192.197 218.268C192.197 218.481 192.424 221.108 192.538 222.131C191.573 221.958 190.592 221.892 189.613 221.932ZM187.667 241.826C186.818 241.654 185.96 241.526 185.097 241.443C184.998 241.443 184.941 241.585 185.097 241.642C185.913 241.933 186.762 242.119 187.625 242.195C187.809 242.252 187.909 241.869 187.667 241.826ZM184.927 242.38C185.594 242.962 186.616 242.692 187.383 243.019C187.409 243.036 187.438 243.048 187.469 243.053C187.5 243.057 187.531 243.056 187.561 243.047C187.591 243.038 187.619 243.023 187.642 243.003C187.665 242.982 187.684 242.957 187.697 242.929C187.709 242.9 187.716 242.87 187.715 242.838C187.715 242.807 187.707 242.777 187.694 242.749C187.68 242.721 187.66 242.696 187.636 242.677C187.612 242.657 187.584 242.643 187.554 242.636C187.128 242.494 184.6 242.039 184.927 242.38ZM208.967 230.338C208.177 230.168 207.351 230.288 206.642 230.677C205.933 231.065 205.387 231.696 205.105 232.454C203.926 236.714 210.501 238.39 211.41 234.172C211.588 233.341 211.432 232.472 210.974 231.755C210.517 231.037 209.796 230.528 208.967 230.338ZM205.644 231.986C206.298 230.566 208.484 230.48 208.896 230.566C209.561 230.775 210.134 231.204 210.524 231.782C210.913 232.359 211.095 233.052 211.04 233.746C210.771 238.191 203.685 236.146 205.644 231.986ZM221.989 239.739C222.145 237.197 221.506 235.181 221.392 236.004C221.245 237.273 221.298 238.557 221.548 239.81C221.605 240.051 221.974 239.98 221.989 239.739ZM221.946 246.228C221.946 246.498 222.415 246.427 222.415 246.157C222.423 244.989 222.314 243.824 222.088 242.678C221.676 241.656 221.776 245.106 221.946 246.228ZM225.922 240.236C220.242 241.159 222.216 241.429 226.064 240.747C226.405 240.69 226.249 240.179 225.922 240.236ZM220.966 241.116C219.839 241.132 218.714 241.232 217.601 241.414C217.576 241.423 217.554 241.439 217.539 241.461C217.523 241.483 217.515 241.509 217.515 241.535C217.515 241.562 217.523 241.587 217.539 241.609C217.554 241.631 217.576 241.647 217.601 241.656C218.742 241.813 219.903 241.755 221.023 241.485C221.047 241.482 221.071 241.473 221.092 241.46C221.112 241.448 221.131 241.431 221.145 241.411C221.16 241.391 221.17 241.369 221.176 241.345C221.182 241.321 221.183 241.297 221.179 241.272C221.176 241.248 221.167 241.225 221.154 241.204C221.142 241.183 221.125 241.165 221.105 241.15C221.085 241.136 221.063 241.125 221.039 241.119C221.015 241.114 220.99 241.112 220.966 241.116Z" fill="#9747FF"/>
<path d="M22.9189 124.733C22.9481 124.978 23.0661 125.204 23.2506 125.368C23.4351 125.531 23.6733 125.622 23.92 125.622C24.1667 125.622 24.4048 125.531 24.5893 125.368C24.7738 125.204 24.8918 124.978 24.9211 124.733C24.9211 124.179 22.9189 123.398 22.9189 124.733ZM20.7321 121.325C20.7615 121.574 20.8811 121.803 21.0683 121.969C21.2554 122.135 21.497 122.227 21.7474 122.227C21.9977 122.227 22.2393 122.135 22.4265 121.969C22.6136 121.803 22.7332 121.574 22.7627 121.325C22.7332 121.076 22.6136 120.847 22.4265 120.681C22.2393 120.515 21.9977 120.423 21.7474 120.423C21.497 120.423 21.2554 120.515 21.0683 120.681C20.8811 120.847 20.7615 121.076 20.7321 121.325ZM18.2045 118.158C18.2045 118.426 18.3107 118.682 18.4998 118.871C18.6888 119.06 18.9453 119.167 19.2127 119.167C19.4801 119.167 19.7365 119.06 19.9256 118.871C20.1146 118.682 20.2209 118.426 20.2209 118.158C20.2209 117.605 18.2045 116.824 18.2045 118.158ZM88.6081 99.0311C88.8529 99.0311 89.0876 98.9338 89.2607 98.7607C89.4338 98.5876 89.5311 98.3528 89.5311 98.108C89.5311 97.8633 89.4338 97.6285 89.2607 97.4554C89.0876 97.2823 88.8529 97.1851 88.6081 97.1851C88.0401 97.1851 87.3869 99.0311 88.6081 99.0311ZM96.0773 102.482C96.0931 102.358 96.0824 102.232 96.0457 102.112C96.0091 101.993 95.9474 101.882 95.8648 101.788C95.7822 101.694 95.6805 101.619 95.5665 101.568C95.4526 101.516 95.329 101.49 95.204 101.49C95.0789 101.49 94.9553 101.516 94.8414 101.568C94.7274 101.619 94.6258 101.694 94.5432 101.788C94.4605 101.882 94.3988 101.993 94.3622 102.112C94.3256 102.232 94.3148 102.358 94.3307 102.482C94.3307 103.007 96.0773 103.66 96.0773 102.482Z" fill="#9747FF"/>
</svg>
