<svg width="284" height="284" viewBox="0 0 284 284" fill="none" xmlns="http://www.w3.org/2000/svg">
<path d="M100.494 213.142C102.861 212.304 105.286 211.639 107.75 211.154L108.048 212.247C108.081 212.376 108.16 212.489 108.269 212.564C108.379 212.64 108.512 212.674 108.644 212.659L118.4 211.523C121.084 205.403 126.011 196.13 126.082 195.988C126.011 193.674 126.082 191.728 126.082 189.513C120.501 191.586 110.178 195.52 104.782 198.033C104.66 198.112 104.566 198.227 104.512 198.362C104.459 198.497 104.449 198.645 104.484 198.786C104.484 198.786 104.583 199.141 104.711 199.652C102.07 199.652 94.1603 199.269 92.2575 201.072C91.9617 201.484 91.8163 201.985 91.8457 202.492C91.7321 204.452 92.7119 219.674 94.2739 224.147C95.0833 226.49 96.7873 226.234 97.9517 223.991C99.2994 220.612 100.165 217.06 100.522 213.44C100.522 213.256 100.479 213.27 100.494 213.142ZM98.8605 200.433C100.593 200.291 101.133 200.319 104.853 200.206C105.52 202.733 106.898 207.931 107.608 210.586C105.102 210.974 102.629 211.548 100.21 212.304C99.4555 208.388 99.0045 204.419 98.8605 200.433Z" fill="#9747FF"/>
<path d="M231.19 76.1543C231.545 75.6573 231.091 75.0183 230.707 74.5213C231.793 73.4042 232.998 72.4091 234.3 71.5535C236.497 70.4586 238.505 69.0206 240.25 67.2935C240.974 66.5409 242.337 64.9931 241.826 64.0843C241.315 63.1755 240.406 63.1187 239.171 63.6441C239.706 63.0822 240.143 62.4341 240.463 61.7271C240.86 60.6195 239.923 59.7249 237.893 60.5485C238.631 59.3699 238.801 58.1345 237.552 57.5381C236.544 57.0553 235.067 58.2055 234.215 58.9581C232.542 60.4199 230.971 61.9951 229.515 63.6725C228.62 61.7981 227.2 59.6397 225.425 60.3213C223.65 61.0029 225.027 64.0559 225.936 65.7173L222.713 67.9467C222.226 67.6837 221.675 67.5609 221.122 67.5917C217.459 68.2165 200.632 81.0249 198.928 81.0249C197.621 81.0249 178.963 72.0789 162.831 69.4945C162.8 69.3978 162.742 69.3118 162.665 69.2465C162.587 69.1812 162.492 69.1392 162.391 69.1253C159.578 68.6452 156.725 68.4313 153.871 68.4863C153.785 68.4922 153.701 68.5168 153.625 68.5585C153.548 68.6002 153.482 68.6579 153.431 68.7277H152.238C151.954 67.5775 150.903 64.9221 150.534 63.8997C151.5 63.0619 152.835 62.6359 153.53 61.2869C154.808 58.7877 154.752 54.4425 154.397 51.6593C156.001 50.4381 156.044 48.4785 155.675 46.4763C155.533 45.6669 155.092 43.8351 154.411 43.3807C154.027 43.1251 153.218 43.3807 152.522 43.6363C151.826 42.0175 151.826 42.7559 152.11 42.1027C152.242 41.8017 152.319 41.4795 152.338 41.1513C153.09 41.3785 154.652 39.8733 154.113 37.8853C153.83 37.1737 153.483 36.4892 153.076 35.8405C153.275 35.3577 153.701 34.7755 152.366 33.0005C151.791 32.3804 151.045 31.9454 150.222 31.7509H149.569C149.098 31.0669 148.406 30.5655 147.609 30.3309C146.406 30.0243 145.131 30.2028 144.059 30.8279C143.775 31.0409 143.548 31.3249 143.264 31.5237C142.622 31.1339 141.885 30.9277 141.134 30.9277C140.383 30.9277 139.646 31.1339 139.004 31.5237C138.628 31.6712 138.286 31.8932 137.998 32.1762C137.71 32.4593 137.482 32.7976 137.328 33.1709C136.632 32.9309 135.894 32.8385 135.161 32.8996C134.427 32.9607 133.715 33.174 133.068 33.5259C130.615 34.8561 128.78 37.0937 127.956 39.7597C127.933 40.1617 127.933 40.5647 127.956 40.9667H127.8C125.67 40.6543 122.958 45.7095 125.13 49.6429C125.386 50.1115 125.713 50.5517 126.025 51.0629C126.934 52.4829 126.579 52.9089 128.609 54.6413C129.206 55.1525 129.305 55.1099 129.674 55.4223C130.044 55.7347 129.902 55.5785 130.115 56.3737C130.231 56.8422 130.439 57.2829 130.726 57.6705C131.014 58.058 131.376 58.3847 131.79 58.6315C131.941 60.0205 132.533 61.3244 133.48 62.3519C133.78 62.6874 134.129 62.9748 134.517 63.2039C134.621 63.2628 134.738 63.2968 134.857 63.3033C135.283 65.9445 135.809 69.3809 136.036 70.8435L134.772 71.5251C133.119 72.1905 131.511 72.9637 129.958 73.8397C129.837 73.924 129.751 74.0505 129.717 74.1947C128.212 74.9899 126.792 75.7425 125.982 76.2253C114.708 82.9135 82.6866 127.005 82.36 129.021C82.324 129.137 82.324 129.26 82.36 129.376C82.819 130.108 83.3782 130.773 84.0214 131.35C83.8232 131.711 83.5851 132.049 83.3114 132.358C80.4714 134.218 76.2114 136.987 73.9252 139.458C73.7649 139.601 73.6446 139.783 73.5762 139.987C73.5078 140.19 73.4937 140.408 73.5353 140.619C73.5769 140.83 73.6727 141.026 73.8133 141.189C73.9539 141.351 74.1344 141.474 74.337 141.545C74.763 141.687 74.834 141.645 77.603 140.125C76.842 140.793 76.2196 141.603 75.7712 142.511C75.5866 143.292 76.2966 143.746 77.1912 143.604C77.6946 143.472 78.1739 143.261 78.6112 142.98C78.3551 143.375 78.2188 143.836 78.2188 144.307C78.2188 144.778 78.3551 145.239 78.6112 145.635C80.0312 147.424 83.7516 141.787 85.7112 140.395C86.5064 141.403 87.5856 143.761 89.3038 143.136C90.7948 142.582 89.1618 139.302 89.3038 138.35C89.8816 137.796 90.4986 137.283 91.1498 136.817C92.2452 137.629 93.4977 138.205 94.8276 138.507C97.1706 138.507 121.623 113.827 123.483 111.853C122.816 118.13 119.45 145.067 120.16 150.307C120.487 152.678 126.181 153.019 128.581 153.147C127.857 170.187 127.374 196.002 127.246 196.272C123.483 204.38 122.461 206.596 121.197 209.052C118.897 213.454 109.212 229.699 108.119 233.391C107.963 233.973 107.948 234.2 108.559 235.28C106.729 237.203 105.031 239.248 103.475 241.4C102.694 242.82 106.046 256.054 108.417 260.74C108.957 261.791 109.837 263.41 111.016 263.367C114.566 263.239 114.551 250.488 114.452 246.924C114.451 246.814 114.411 246.708 114.338 246.625C114.982 245.665 115.684 244.745 116.44 243.871C116.891 244.181 117.366 244.457 117.86 244.694C118.343 244.907 118.882 244.538 119.28 244.211C124.009 240.491 149.512 208.711 154.979 193.716C157.464 186.872 160.772 177.415 161.71 170.712C162.283 166.474 162.335 162.183 161.866 157.932C161.866 157.872 161.89 157.814 161.932 157.771C161.975 157.729 162.033 157.705 162.093 157.705C162.153 157.705 162.211 157.729 162.254 157.771C162.296 157.814 162.32 157.872 162.32 157.932C163.031 162.207 163.17 166.557 162.732 170.868C161.681 180.169 154.34 199.552 150.421 206.681C153.8 206.056 160.673 204.693 163.996 203.699C175.072 200.333 185.296 190.294 186.19 179.019C186.48 173.708 186.48 168.384 186.19 163.073C186.095 155.74 185.141 148.444 183.35 141.332C186.361 139.699 189.116 137.782 190.01 136.022C191.927 132.259 186.858 110.604 185.75 104.526C191.814 105.193 202.137 106.4 206.951 102.637C212.46 98.2069 224.36 85.7393 231.19 76.1543ZM113.685 246.143C111.129 244.595 107.551 240.917 107.011 238.034C107.593 237.296 108.204 236.614 108.772 235.848C110.696 238.784 113.096 241.38 115.872 243.53C115.092 244.357 114.362 245.229 113.685 246.143ZM226.575 66.1149C226.649 66.0681 226.701 65.9949 226.722 65.9103C226.744 65.8258 226.732 65.7365 226.689 65.6605C226.192 64.7375 224.701 61.4857 225.737 61.1165C226.334 60.8893 226.859 61.2585 227.299 61.7555C227.972 62.6083 228.495 63.5685 228.847 64.5955C228.874 64.679 228.922 64.7538 228.988 64.8119C229.053 64.8699 229.133 64.9091 229.219 64.9251C229.305 64.9412 229.394 64.9335 229.476 64.903C229.558 64.8724 229.63 64.8202 229.685 64.7517C231.105 63.1755 234.428 59.5829 236.302 58.6173C237.722 57.8789 238.063 59.2421 234.584 62.4229C233.785 63.0322 233.017 63.6815 232.284 64.3683C232.243 64.4241 232.221 64.4912 232.221 64.56C232.221 64.6289 232.243 64.696 232.284 64.7517C232.284 65.1209 232.582 65.5327 233.093 65.1493C234.327 64.0658 235.632 63.0649 236.998 62.1531C237.695 61.6578 238.506 61.3453 239.355 61.2443C238.929 62.5507 234.967 66.1007 234.627 66.4983C234.519 66.5952 234.453 66.7307 234.444 66.8755C234.434 67.0204 234.482 67.163 234.577 67.2728C234.672 67.3826 234.807 67.4508 234.951 67.4626C235.096 67.4745 235.239 67.429 235.351 67.3361C236.927 66.3137 239.682 63.9281 240.633 64.2831C241.585 64.6381 238.759 67.2793 238.049 67.9041C233.973 71.4399 235.024 69.1679 230.31 73.9675C228.258 71.7196 225.901 69.7695 223.309 68.1739L226.575 66.1149ZM164.876 134.034C164.635 132.074 164.337 129.958 163.967 127.757L164.578 126.948C167.418 123.298 168.27 117.491 168 112.932C169.52 119.592 170.727 126.138 171.65 132.642L164.876 134.034ZM143.761 85.4127C140.026 82.5727 134.02 77.6737 130.526 74.3225L136.206 71.4825C141.422 76.3543 145.887 81.9723 149.455 88.1533C154.911 98.1761 158.958 108.904 161.482 120.032L141.233 91.3909L143.874 85.9097C143.909 85.8253 143.917 85.7322 143.897 85.6431C143.877 85.5541 143.829 85.4736 143.761 85.4127ZM153.36 69.3099C153.445 69.4661 154.425 71.5535 155.916 75.2029C155.916 75.3591 155.646 78.9091 155.518 80.1587C153.706 79.4403 151.997 78.4854 150.435 77.3187C150.747 76.0833 152.153 70.4743 152.252 69.2105L153.36 69.3099ZM148.319 84.5607C148.418 84.3051 148.518 83.9643 148.631 83.5667L149.583 84.0637C150.122 84.4187 149.909 83.3395 150.392 86.4635C150.392 86.9889 150.534 87.5711 150.563 88.2101C149.909 87.0315 149.1 85.7677 148.333 84.5607H148.319ZM147.524 83.3679C144.841 79.5628 141.787 76.0334 138.407 72.8315L149.1 77.4749C148.688 78.4547 148.092 81.4509 147.538 83.3679H147.524ZM158.444 91.6891C157.024 87.8125 155.93 83.4815 155.391 82.3455C155.423 81.9913 155.423 81.6348 155.391 81.2805C155.596 81.357 155.811 81.4048 156.03 81.4225C156.167 81.4241 156.3 81.3761 156.404 81.2874C156.508 81.1986 156.577 81.0752 156.598 80.9397C156.711 80.4711 156.896 78.0997 156.924 77.5743C161.055 88.0036 164.503 98.6903 167.248 109.567C159.225 92.4985 160.46 97.4401 158.458 91.6891H158.444ZM170.187 118.797C166.949 103.276 161.255 83.9217 154.78 69.5797C157.158 69.5811 159.532 69.771 161.88 70.1477C163.087 80.9397 162.079 80.5705 162.888 80.9965C163.698 81.4225 168.568 83.3821 169.292 83.6803C169.221 84.7737 170.244 116.042 170.201 118.797H170.187ZM153.843 44.2895C154.583 45.905 154.844 47.6989 154.595 49.4583C154.48 49.9061 154.242 50.3131 153.909 50.6339C153.576 50.9547 153.16 51.1767 152.708 51.2753C152.257 51.374 151.786 51.3453 151.35 51.1924C150.913 51.0396 150.528 50.7687 150.236 50.4097C149.558 48.9824 149.049 47.4814 148.717 45.9367C149.1 45.4397 153.19 44.4457 153.843 44.2895ZM134.304 58.4895C133.785 58.2534 133.254 58.0448 132.713 57.8647C132.35 57.7156 132.026 57.4852 131.766 57.1914C131.506 56.8977 131.317 56.5482 131.212 56.1698C131.108 55.7915 131.092 55.3943 131.165 55.0088C131.238 54.6232 131.399 54.2595 131.634 53.9455C132.529 53.1929 133.338 53.2355 134.076 54.3573C134.545 55.2235 134.531 55.2945 134.744 55.3797C134.805 55.4067 134.871 55.4202 134.938 55.4195C135.005 55.4188 135.07 55.4038 135.131 55.3756C135.191 55.3473 135.245 55.3065 135.289 55.2558C135.332 55.2051 135.364 55.1457 135.383 55.0815C135.593 54.1927 135.627 53.2712 135.482 52.3693C135.312 51.3895 135.283 47.0443 135.312 46.9023C135.727 47.121 136.193 47.224 136.661 47.2005C139.231 47.1011 139.742 45.7805 140.765 44.7013C141.943 44.8149 142.185 45.3829 143.519 44.7013C144.144 44.3458 144.718 43.9062 145.223 43.3949C145.632 43.562 146.026 43.7615 146.402 43.9913C147.253 44.4006 148.213 44.5263 149.141 44.3499C150.068 44.1736 150.915 43.7045 151.557 43.0115C151.713 43.3097 151.855 43.6079 151.983 43.9203C150.678 44.3252 149.449 44.9443 148.347 45.7521C148.106 46.0503 148.461 47.6691 148.546 48.0525C147.357 48.2022 146.206 48.573 145.152 49.1459C144.939 48.4075 144.471 47.0301 143.732 46.6467C143.51 46.5788 143.273 46.5788 143.051 46.6467C141.773 46.8455 137.186 48.2229 136.632 48.9755C136.15 49.5009 137.527 53.5621 137.953 54.2295C139.586 56.7571 144.371 56.0187 145.266 53.0651C145.488 52.0739 145.488 51.046 145.266 50.0547C145.678 50.0547 146.913 49.6145 147.055 49.5719C148.035 51.7729 148.319 51.9007 149.455 54.2721C149.299 54.3999 149.043 54.6129 148.83 54.7549C147.822 55.4223 147.609 55.3087 147.666 55.5927C147.682 55.6491 147.719 55.6975 147.769 55.7289C147.818 55.7602 147.878 55.7724 147.936 55.7631C148.532 55.678 149.114 55.5157 149.668 55.2803C150 55.1566 150.273 54.9136 150.435 54.5987C150.832 53.7041 148.631 50.3387 147.765 49.3305C147.936 49.3305 148.333 49.0465 148.631 48.8903C149.029 50.4807 149.299 51.7303 150.832 52.3551C151.276 52.5225 151.748 52.5987 152.221 52.5791C152.695 52.5596 153.159 52.4448 153.587 52.2415C153.814 54.7407 153.772 58.8019 152.579 61.0171C151.968 62.1673 150.463 62.6075 149.498 63.5589C149.214 63.8287 149.398 64.2121 149.498 64.6239C151.074 69.0117 151.102 68.9975 151.017 69.5655C150.599 71.923 150.015 74.2481 149.27 76.5235C148.915 76.3673 144.925 74.2515 137.115 71.2127C136.874 69.6081 135.582 61.0455 135.17 59.4693C135.198 58.9155 135.127 58.7877 134.304 58.4185V58.4895ZM144.244 52.6959C143.789 54.2437 141.645 54.9111 140.111 54.4851C138.578 54.0591 138.478 53.2781 137.754 51.4321C137.415 50.7269 137.18 49.9758 137.058 49.2027C137.527 48.6915 142.653 47.6407 143.292 47.5413C144.189 49.0746 144.525 50.8714 144.244 52.6249V52.6959ZM88.679 137.953C88.1394 138.478 88.8636 140.196 88.9772 141.687C88.9772 141.815 88.9772 142.369 88.892 142.412C88.111 142.667 87.3868 141.489 86.9466 140.779C86.5064 140.069 86.0662 139.103 85.3704 139.359C83.9504 140.026 80.656 144.4 79.3638 144.854C78.7106 143.604 82.4452 140.04 82.573 139.841C82.6278 139.75 82.6565 139.645 82.656 139.539C82.6555 139.433 82.6259 139.328 82.5702 139.237C82.5146 139.147 82.4351 139.073 82.3405 139.024C82.2458 138.975 82.1396 138.954 82.0334 138.961C81.7778 138.961 81.6074 139.188 81.2098 139.543C80.0005 140.723 78.6163 141.71 77.106 142.468C78.4753 140.897 79.9407 139.413 81.4938 138.024C81.5705 137.945 81.6245 137.847 81.65 137.74C81.65 137.74 81.3518 136.987 80.7696 137.285C79.946 137.74 75.9416 140.054 74.6778 140.651C74.5074 140.537 74.6068 140.367 74.6778 140.196C76.68 137.74 81.082 134.758 83.78 132.869C84.0967 132.543 84.3602 132.169 84.561 131.762C86.4296 133.5 88.4229 135.1 90.525 136.547C89.8774 136.972 89.2606 137.441 88.679 137.953ZM121.722 150.861C121.41 150.662 121.183 150.477 121.14 150.222C120.359 144.428 124.704 111.598 124.633 110.305C124.633 110.23 124.618 110.155 124.589 110.085C124.559 110.015 124.516 109.952 124.462 109.899C124.408 109.846 124.344 109.804 124.273 109.776C124.202 109.749 124.127 109.735 124.051 109.737C123.327 109.737 124.605 109.737 106.514 127.061C105.321 128.183 96.205 136.902 94.6856 137.484C92.5982 137.328 84.7456 131.066 83.4676 129.092C85.9384 124.094 115.9 82.9703 126.266 76.6797C127.062 76.1969 128.425 75.4443 129.916 74.6491C130.431 75.1354 130.987 75.5772 131.577 75.9697C134.872 79.0937 139.458 82.9845 142.937 85.9097L140.225 91.2915C140.184 91.3628 140.162 91.4436 140.162 91.5258C140.162 91.6081 140.184 91.6889 140.225 91.7601C162.249 123.355 161.923 123 162.065 123C163.477 130.301 164.355 137.695 164.692 145.124C164.692 147.126 164.692 146.956 164.777 146.814C164.862 146.672 164.777 146.913 164.777 146.913C161.34 150.662 127.331 154.155 121.722 150.861ZM200.22 103.816C193.787 104.711 186.517 103.376 185.111 103.319C184.33 99.5334 182.773 95.9508 180.539 92.7967C180.505 92.7508 180.455 92.7194 180.398 92.7088C180.342 92.6983 180.284 92.7094 180.235 92.7399C180.187 92.7704 180.152 92.8181 180.137 92.8733C180.122 92.9286 180.129 92.9875 180.155 93.0381C180.979 94.7137 183.734 101.942 184.415 103.702C184.202 104.384 190.834 131.804 188.959 135.496C187.284 138.833 177.528 143.036 174.007 144.243C173.311 136.338 172.173 128.478 170.599 120.7C171.082 116.61 170.457 92.2997 170.272 83.3111C170.267 83.2067 170.232 83.1059 170.172 83.0205C170.111 82.935 170.028 82.8684 169.931 82.8283L163.556 80.1445C163.527 76.77 163.313 73.3996 162.917 70.0483C178.835 72.8031 197.38 81.9053 198.928 81.9195C201.171 81.9195 217.842 69.1395 221.293 68.6283C222.826 68.3869 229.415 74.1379 230.182 75.7283C223.451 85.1287 211.623 97.4827 206.141 101.757C204.376 102.938 202.337 103.646 200.22 103.816Z" fill="#9747FF"/>
<path d="M142.781 49.8559C142.763 49.7627 142.727 49.6739 142.675 49.5945C142.623 49.5151 142.556 49.4468 142.478 49.3934C142.399 49.34 142.311 49.3026 142.218 49.2833C142.125 49.264 142.029 49.2631 141.936 49.2808C141.843 49.2986 141.754 49.3345 141.675 49.3865C141.595 49.4386 141.527 49.5057 141.474 49.5842C141.42 49.6626 141.383 49.7509 141.363 49.8438C141.344 49.9367 141.343 50.0325 141.361 50.1257C141.645 51.5457 141.702 51.8723 142.327 51.8723C142.445 51.8728 142.561 51.8437 142.665 51.7878C142.769 51.7319 142.858 51.651 142.922 51.5523C142.987 51.4536 143.026 51.3403 143.036 51.2226C143.046 51.1049 143.027 50.9866 142.98 50.8783C142.937 50.6511 142.809 49.9837 142.781 49.8559ZM147.126 59.2563C148.049 59.5261 148.93 59.0859 148.901 58.8587C148.873 58.6315 148.901 58.7452 147.652 58.2766C146.814 57.9642 145.891 56.8565 145.564 57.027C145.238 57.1973 145.735 58.1062 145.848 58.2766C146.152 58.7375 146.602 59.0826 147.126 59.2563ZM173.098 45.7663C171.238 53.5621 169.875 60.1794 169.647 61.5C169.496 62.0745 169.467 62.6743 169.562 63.2607C170.315 64.8653 180.042 68.032 181.277 67.4072C182.513 66.7824 185.722 59.5545 189.456 52.0995C191.744 52.1726 194.033 52.0061 196.287 51.6026C198.659 51.1673 200.968 50.4375 203.159 49.43C207.959 47.2148 213.213 37.7291 213.923 32.9579C214.455 27.7779 213.358 22.5607 210.785 18.0338C198.871 -2.62725 163.925 8.49135 166.765 31.4385C167.576 36.6893 169.761 41.6323 173.098 45.7663ZM181.76 62.6786C181.76 62.9058 181.504 62.8773 180.34 62.6786C177.958 62.3792 175.652 61.6427 173.538 60.506C172.544 59.9664 172.274 59.8527 172.374 59.6113C172.473 59.3699 172.686 59.4551 174.22 59.8811C174.362 59.8811 178.764 61.3011 180.028 61.7413C181.661 62.4797 181.76 62.4798 181.76 62.6786ZM181.504 39.5752C183.021 39.6538 184.532 39.3408 185.892 38.6663C187.157 39.2789 188.524 39.6497 189.925 39.7598C187.539 44.2043 182.697 53.264 181.135 58.0919L175.114 56.4306C176.534 52.9374 179.673 44.7582 181.476 39.5752H181.504ZM181.007 38.3966C179.947 38.2364 178.969 37.733 178.223 36.9635C177.476 36.194 177.003 35.2009 176.875 34.1366C176.478 31.2966 178.295 28.1158 181.036 28.8684C182.754 29.337 182.967 30.7001 182.669 32.4184C182.413 33.6679 181.49 36.8062 180.979 38.3398L181.007 38.3966ZM184.87 34.9885C185.021 34.0594 185.37 33.1734 185.892 32.3899C186.141 31.9629 186.504 31.6141 186.941 31.3832C187.377 31.1522 187.87 31.0484 188.363 31.0835C189.414 31.3959 189.868 33.3839 189.002 34.6335C188.169 35.7383 187.133 36.6734 185.949 37.3883C185.541 37.1492 185.217 36.7911 185.019 36.3621C184.821 35.9331 184.759 35.4538 184.841 34.9885H184.87ZM171.82 16.9404C178.182 9.28655 190.152 6.24775 198.8 9.40015C203.498 11.0128 207.449 14.2779 209.919 18.5876C212.367 22.8952 213.414 27.858 212.915 32.7875C212.262 37.2037 207.235 46.3769 202.819 48.4076C198.781 50.2493 194.375 51.143 189.939 51.0203C189.456 51.0203 188.945 51.0203 188.761 51.3611C187.923 53.0651 186.389 56.3595 184.884 59.4551C183.845 58.9533 182.767 58.5354 181.661 58.2056C183.308 53.4912 188.505 44.2327 190.976 39.7455C193.117 39.929 195.268 39.5573 197.224 38.6663C197.752 38.3883 198.19 37.9653 198.486 37.4471C198.783 36.9288 198.925 36.3368 198.897 35.7405C198.868 35.1442 198.67 34.5683 198.326 34.0805C197.982 33.5927 197.506 33.2131 196.954 32.9863C194.753 31.9071 192.779 34.4915 191.629 36.6641C191.317 37.2321 190.962 37.8995 190.564 38.6521C189.415 38.5767 188.283 38.3425 187.199 37.9563C188.278 37.1974 189.236 36.278 190.039 35.2299C190.488 34.551 190.716 33.7493 190.691 32.9354C190.665 32.1214 190.388 31.3355 189.897 30.686C189.511 30.2379 188.975 29.9461 188.389 29.865C187.804 29.784 187.209 29.9193 186.716 30.2458C185.721 30.8568 184.924 31.7419 184.421 32.7948C183.917 33.8477 183.728 35.0236 183.876 36.1813C184.03 36.8349 184.382 37.4249 184.884 37.8711C183.953 38.2569 182.953 38.4501 181.945 38.4391C182.513 36.7636 183.436 33.7389 183.677 32.5035C183.828 31.7992 183.862 31.0747 183.776 30.3593C183.666 29.7453 183.382 29.176 182.956 28.7201C182.53 28.2641 181.982 27.9408 181.377 27.7892C177.926 26.8094 175.384 30.6292 175.881 34.1933C176.022 35.4706 176.57 36.6687 177.444 37.6099C178.319 38.5512 179.474 39.1855 180.738 39.4189C178.92 44.5309 176.08 52.7812 174.66 56.3028L171.536 55.4934C173.538 45.4398 173.78 45.6811 173.496 45.5533C170.269 41.4396 168.205 36.536 167.517 31.3533C167.183 28.7835 167.393 26.172 168.134 23.6887C168.875 21.2055 170.131 18.9062 171.82 16.9404ZM191.53 38.7373C192.524 36.934 194.512 32.9863 196.443 33.952C196.829 34.1076 197.165 34.3657 197.416 34.6986C197.666 35.0314 197.82 35.4263 197.863 35.8405C197.834 38.3398 193.944 38.7799 191.473 38.7373H191.53ZM245.887 44.9995C247.598 43.9932 249.619 43.6496 251.567 44.034C253.707 44.0722 255.75 44.9277 257.279 46.4248C258.808 47.9219 259.706 49.9472 259.789 52.0853C258.502 51.3389 256.998 51.0581 255.529 51.2901C251.965 51.6025 247.307 53.5337 247.932 56.9701C248.443 59.8101 252.192 59.4268 255.032 58.66C257.872 57.8932 260.13 56.5016 260.712 53.761C264.163 56.2744 264.972 60.6763 265.114 64.9789C265.114 65.0392 265.138 65.097 265.18 65.1396C265.223 65.1822 265.281 65.2062 265.341 65.2062C265.401 65.2062 265.459 65.1822 265.502 65.1396C265.544 65.097 265.568 65.0392 265.568 64.9789C265.668 60.1651 264.802 55.4508 260.868 52.7102C260.909 51.4773 260.698 50.249 260.25 49.0997C259.802 47.9504 259.126 46.904 258.262 46.0238C257.397 45.1437 256.363 44.4481 255.222 43.9791C254.082 43.5101 252.857 43.2776 251.624 43.2955C249.653 43.0077 247.643 43.4197 245.944 44.4599C245.419 44.7155 245.66 45.0989 245.887 44.9995ZM258.838 55.181C257.233 57.2826 252.689 58.376 250.587 58.021C249.806 57.8932 249.167 57.5666 248.997 56.7572C248.486 53.9172 253.385 52.3694 256.31 52.27C257.501 52.1786 258.689 52.4831 259.69 53.1362C259.582 53.8786 259.289 54.5819 258.838 55.181ZM239.384 28.3998C240.903 26.5254 239.881 23.2594 235.635 23.2452C233.988 23.2452 233.192 24.9208 233.306 26.5254C233.562 30.3452 237.864 30.2316 239.384 28.3998ZM234.3 26.4543C234.3 25.5171 234.74 24.296 235.72 24.3102C238.006 24.3102 239.057 25.3752 239.057 26.5538C239 29.2376 234.115 30.6291 234.3 26.4543ZM233.718 187.44C221.236 182.456 215.442 206.581 205.247 227.313C205.182 228.185 205.211 229.061 205.332 229.926C205.332 232.099 205.573 246.483 206.837 248.116C207.178 248.77 208.612 248.116 209.28 247.705C214.948 244.195 220.29 240.184 225.24 235.72C225.283 235.671 225.314 235.615 225.334 235.554C225.353 235.493 225.36 235.429 225.354 235.365C227.995 231.602 237.893 212.006 240.292 202.179C241.968 195.221 240.307 190.038 233.718 187.44ZM238.177 205.474C231.494 204.617 225.034 202.507 219.134 199.254C222.457 192.964 226.561 185.793 233.334 188.491C240.875 191.487 240.718 197.692 238.177 205.431V205.474ZM214.548 242.394C214.112 242.028 213.635 241.714 213.128 241.457C211.209 240.481 208.992 240.268 206.922 240.86C206.78 239.17 205.971 228.18 205.971 228.08C216.607 231.971 213.327 230.281 223.863 235.521C222.755 236.572 218.595 239.483 214.548 242.365V242.394ZM221.875 201.299C223.26 202.056 224.682 202.743 226.135 203.358C222.88 208.471 220.004 213.815 217.53 219.347C215.144 224.331 215.229 224.303 212.801 229.742C211.381 229.287 209.961 228.861 208.541 228.435C210.075 225.382 220.98 203.06 221.875 201.271V201.299ZM213.355 229.884C217.97 221.605 222.67 211.31 226.703 203.543C228.123 204.139 229.543 204.622 230.963 205.048C230.21 206.468 228.009 210.245 227.427 211.338C226.845 212.432 221.009 223.934 220.597 224.814C219.944 226.234 218.155 230.196 217.601 231.46C216.152 230.821 214.761 230.338 213.298 229.855L213.355 229.884ZM218.112 231.644C218.978 230.068 222.542 223.451 222.983 222.599C223.65 221.278 231.091 206.07 231.503 205.19C232.809 205.559 234.186 205.871 235.067 206.042C232.468 213.142 224.985 226.816 222.287 233.561C219.83 232.411 219.276 232.127 218.055 231.616L218.112 231.644ZM218.978 199.666L221.52 201.086C216.398 209.809 211.936 218.904 208.172 228.293L206.042 227.64C214.292 210.06 214.676 207.76 218.921 199.638L218.978 199.666ZM224.829 234.797L222.684 233.774C224.999 229.23 232.241 217.572 235.55 206.141C236.345 206.283 237.126 206.411 237.878 206.51C234.229 216.247 229.848 225.693 224.772 234.768L224.829 234.797ZM180.34 244.013C180.906 243.544 181.31 242.909 181.496 242.199C181.682 241.488 181.641 240.736 181.377 240.051C181.256 239.061 180.802 238.142 180.09 237.445C179.378 236.748 178.449 236.314 177.458 236.215C176.466 236.116 175.47 236.357 174.634 236.9C173.797 237.442 173.171 238.253 172.857 239.199C171.039 238.02 169.065 236.771 167.177 235.578C168.597 233.689 172.771 234.527 173.197 236.075C173.207 236.135 173.24 236.189 173.289 236.225C173.338 236.261 173.4 236.276 173.46 236.266C173.52 236.257 173.574 236.224 173.61 236.175C173.646 236.126 173.661 236.064 173.652 236.004C173.439 233.533 168.298 232.085 166.225 234.996C164.393 233.874 162.121 232.511 160.219 231.474C161.852 230.054 165.501 230.849 165.899 232.326C165.917 232.376 165.953 232.419 166 232.445C166.047 232.472 166.102 232.48 166.155 232.47C166.208 232.46 166.255 232.431 166.289 232.389C166.323 232.347 166.34 232.295 166.339 232.241C166.154 229.94 161.397 228.393 159.239 230.92C158.334 230.413 157.383 229.995 156.399 229.671C156.219 229.596 156.021 229.575 155.83 229.61C155.638 229.646 155.461 229.736 155.32 229.869C151.727 234.342 139.614 245.958 134.02 247.307C133.879 247.328 133.746 247.386 133.635 247.475C133.524 247.563 133.438 247.68 133.386 247.812C133.334 247.945 133.318 248.089 133.34 248.229C133.361 248.37 133.419 248.502 133.508 248.613C134.737 249.86 136.144 250.918 137.683 251.752C136.263 253.172 135.156 254.45 134.332 255.373C133.906 255.827 133.679 264.517 134.048 266.434C134.103 266.622 134.224 266.783 134.389 266.889C136.178 268.11 159.225 278.078 161.582 276.744C163.158 275.849 181.973 256.267 182.271 255.671C182.726 254.734 182.569 248.486 182.541 245.986C182.427 245.234 181.022 244.424 180.34 244.013ZM134.9 262.771V259.604C140.793 262.444 154.283 268.238 159.395 269.857C160.701 270.283 160.815 270.226 161.497 269.857C165.402 267.357 179.19 251.823 181.717 249.451V252.447C174.049 260.13 161.028 273.591 160.787 272.824C159.381 272.739 136.121 263.339 134.9 262.771ZM179.985 239.227C180.495 240.087 180.77 241.067 180.78 242.067C180.775 242.385 180.697 242.698 180.552 242.981C180.407 243.265 180.198 243.51 179.942 243.7C178.75 242.905 176.492 241.428 173.822 239.696C175.285 236.813 178.537 236.771 179.928 239.227H179.985ZM134.545 248.315C140.594 246.526 152.082 235.45 155.944 230.65C156.874 230.909 157.77 231.276 158.614 231.744C157.194 234.385 158.713 237.282 159.253 236.87C159.551 236.643 159.012 236.558 158.926 235.166C158.89 234.149 159.12 233.141 159.594 232.241C161.553 233.263 163.854 234.598 165.799 235.72C164.606 238.375 166.041 241.002 166.538 240.619C167.035 240.235 166.31 240.321 166.225 238.929C166.19 238.016 166.365 237.108 166.736 236.274C168.739 237.452 170.783 238.673 172.658 239.824C172.369 240.531 172.254 241.298 172.323 242.059C172.393 242.82 172.644 243.553 173.055 244.197C173.074 244.221 173.097 244.242 173.124 244.257C173.15 244.272 173.18 244.282 173.21 244.286C173.24 244.29 173.271 244.288 173.301 244.28C173.33 244.272 173.358 244.258 173.382 244.24C173.406 244.221 173.427 244.198 173.442 244.171C173.457 244.145 173.467 244.116 173.471 244.085C173.475 244.055 173.473 244.024 173.465 243.995C173.457 243.965 173.443 243.937 173.425 243.913C173.169 243.349 173.043 242.735 173.056 242.116C173.068 241.497 173.218 240.888 173.496 240.335C176.804 242.351 179.474 244.041 180.297 244.595C180.141 244.737 165.331 257.914 160.29 261.834C156.981 260.967 139.614 252.348 134.545 248.315ZM135.085 256.225C141.517 259.065 156.129 265.653 159.494 266.292C160.077 266.406 160.304 266.449 161.411 265.568C166.14 261.777 181.519 245.688 181.661 245.859C181.667 245.901 181.667 245.944 181.661 245.986V248.826C178.494 251.368 160.886 269.857 160.602 268.976C159.182 268.976 136.107 259.562 134.928 259.036C134.9 258.44 135.028 256.849 135.085 256.225ZM160.943 275.792C159.523 276.602 137.896 267.812 134.999 266.023C134.891 265.118 134.838 264.207 134.843 263.296C141.063 266.363 159.154 274.003 160.815 273.932C163.243 273.804 180.411 254.478 181.632 253.129C181.646 253.854 181.575 254.579 181.419 255.287C181.178 255.756 161.88 275.267 160.943 275.792ZM43.2957 195.747C43.3951 197.266 43.4661 198.587 43.4661 199.822C43.4661 200.01 43.5409 200.191 43.6741 200.324C43.8072 200.457 43.9878 200.532 44.1761 200.532C44.3644 200.532 44.545 200.457 44.6782 200.324C44.8113 200.191 44.8861 200.01 44.8861 199.822C44.8861 198.502 44.8151 197.195 44.7157 195.647C44.7026 195.459 44.6151 195.284 44.4726 195.16C44.3302 195.036 44.1443 194.974 43.956 194.987C43.7677 195 43.5924 195.088 43.4685 195.23C43.3447 195.373 43.2826 195.558 43.2957 195.747ZM259.661 167.276C259.568 167.281 259.478 167.305 259.394 167.346C259.311 167.387 259.237 167.444 259.176 167.514C259.115 167.584 259.069 167.666 259.04 167.754C259.011 167.843 259 167.936 259.008 168.028C259.093 169.335 259.178 170.741 259.178 172.104C259.178 172.292 259.253 172.473 259.386 172.606C259.519 172.739 259.7 172.814 259.888 172.814C260.077 172.814 260.257 172.739 260.39 172.606C260.524 172.473 260.598 172.292 260.598 172.104C260.598 170.684 260.513 169.264 260.414 167.929C260.408 167.836 260.385 167.745 260.344 167.662C260.303 167.579 260.245 167.505 260.175 167.444C260.105 167.383 260.023 167.337 259.935 167.308C259.847 167.279 259.754 167.268 259.661 167.276ZM39.6179 192.211C39.8062 192.211 39.9868 192.136 40.12 192.003C40.2531 191.87 40.3279 191.689 40.3279 191.501C40.3279 191.313 40.2531 191.132 40.12 190.999C39.9868 190.866 39.8062 190.791 39.6179 190.791C37.8997 190.791 36.4655 190.919 35.0455 190.89C34.8559 190.89 34.6738 190.965 34.5384 191.097C34.403 191.23 34.3251 191.411 34.3213 191.6C34.3213 191.789 34.3961 191.969 34.5293 192.102C34.6624 192.236 34.843 192.31 35.0313 192.31C36.4939 192.339 38.0985 192.282 39.6179 192.211ZM255.259 163.073C253.555 163.073 252.121 163.172 250.687 163.186C250.498 163.186 250.318 163.261 250.185 163.394C250.052 163.527 249.977 163.708 249.977 163.896C249.977 164.084 250.052 164.265 250.185 164.398C250.318 164.531 250.498 164.606 250.687 164.606C252.22 164.606 253.811 164.606 255.344 164.493C255.533 164.481 255.709 164.396 255.834 164.254C255.959 164.113 256.023 163.928 256.012 163.74C256 163.552 255.915 163.376 255.774 163.25C255.633 163.125 255.447 163.061 255.259 163.073ZM42.9123 183.435C42.9975 184.742 43.0827 186.148 43.0827 187.511C43.0864 187.698 43.1623 187.876 43.2947 188.009C43.4271 188.141 43.6056 188.217 43.7927 188.221C43.981 188.221 44.1616 188.146 44.2948 188.013C44.4279 187.88 44.5027 187.699 44.5027 187.511C44.5027 186.091 44.4175 184.671 44.3323 183.336C44.3192 183.148 44.2317 182.972 44.0892 182.848C43.9468 182.725 43.7609 182.662 43.5726 182.676C43.3843 182.689 43.209 182.776 43.0851 182.919C42.9613 183.061 42.8992 183.247 42.9123 183.435ZM260.215 159.792C260.215 158.372 260.13 156.952 260.03 155.618C260.017 155.429 259.93 155.254 259.787 155.13C259.645 155.006 259.459 154.944 259.271 154.957C259.082 154.97 258.907 155.058 258.783 155.2C258.659 155.343 258.597 155.529 258.61 155.717C258.696 157.023 258.781 158.429 258.781 159.792C258.781 159.981 258.856 160.161 258.989 160.294C259.122 160.428 259.302 160.502 259.491 160.502C259.68 160.502 259.862 160.428 259.998 160.295C260.133 160.163 260.211 159.982 260.215 159.792ZM53.3919 192.026C53.4852 192.023 53.5768 192.001 53.6616 191.962C53.7463 191.922 53.8225 191.867 53.8858 191.798C53.9492 191.73 53.9983 191.649 54.0305 191.562C54.0627 191.474 54.0773 191.381 54.0735 191.288C54.0592 191.102 53.9751 190.929 53.8382 190.802C53.7012 190.676 53.5215 190.606 53.3351 190.606C51.6169 190.677 50.1827 190.734 48.7485 190.706C48.5602 190.706 48.3796 190.781 48.2465 190.914C48.1133 191.047 48.0385 191.227 48.0385 191.416C48.0385 191.604 48.1133 191.785 48.2465 191.918C48.3796 192.051 48.5602 192.126 48.7485 192.126C50.2679 192.154 51.8583 192.097 53.3919 192.026ZM269.033 162.888C267.613 162.959 266.037 163.002 264.461 163.002C264.367 162.998 264.273 163.013 264.186 163.046C264.098 163.079 264.018 163.13 263.95 163.195C263.883 163.26 263.829 163.338 263.792 163.424C263.755 163.511 263.736 163.604 263.737 163.697C263.736 163.887 263.811 164.069 263.944 164.204C264.076 164.34 264.257 164.418 264.447 164.422C266.065 164.422 267.372 164.422 269.09 164.308C269.183 164.304 269.275 164.282 269.36 164.243C269.444 164.204 269.521 164.149 269.584 164.08C269.647 164.011 269.696 163.931 269.729 163.843C269.761 163.756 269.775 163.663 269.772 163.57C269.754 163.385 269.669 163.213 269.533 163.087C269.396 162.962 269.219 162.891 269.033 162.888ZM20.7603 149.952C20.9449 150.094 60.9889 144.158 62.7071 143.107C62.8023 143.038 62.8783 142.945 62.9279 142.839C62.9776 142.732 62.9993 142.614 62.9911 142.497C62.9911 140.665 60.5913 123.469 59.4411 119.18C59.2991 118.655 59.1571 118.13 58.8305 117.945C56.6579 116.639 18.3747 123.852 16.0885 125.329C16.0266 125.366 15.973 125.415 15.9314 125.474C15.8898 125.532 15.8611 125.599 15.8471 125.67C15.3643 127.388 19.5249 149.1 20.7603 149.952ZM16.7133 126.011C19.4397 124.775 54.1871 118.414 58.1631 118.911C59.1287 121.396 61.7131 139.6 61.8835 142.27C59.9097 142.852 21.2999 149.483 21.1579 149.512C21.0159 149.54 21.0017 149.71 20.7035 148.816C19.4539 145.067 16.6423 129.22 16.7133 126.011Z" fill="#9747FF"/>
<path d="M65.8313 144.371C65.9085 144.228 65.943 144.065 65.9307 143.902C65.9307 141.645 62.6931 116.582 61.5429 114.579C61.4527 114.432 61.3251 114.311 61.1729 114.228C61.0208 114.146 60.8496 114.106 60.6767 114.111C55.9197 113.529 15.7905 121.367 13.1493 123.199C12.7801 123.454 12.8369 124.093 12.8795 124.775C13.1067 128.51 17.1395 153.076 18.5595 152.934C18.7157 152.934 18.6589 152.82 18.2897 153.573C16.0745 158.131 11.8713 172.728 11.9565 175.668C11.9565 176.903 12.2405 178.508 13.4617 178.423C22.2231 177.343 65.1781 170.528 77.5321 167.986C78.0149 167.886 78.3273 167.446 78.3131 166.722C78.1673 165.515 77.8015 164.346 77.2339 163.271C75.5015 160.02 68.3163 147.14 65.8313 144.371ZM18.6447 152.493C17.5371 151.073 13.4617 126.607 13.7741 123.895C16.8981 122.276 56.4877 114.622 60.6341 115.247C61.7701 118.371 64.7095 140.935 64.8941 143.647C59.8673 145.379 25.0631 151.002 18.6447 152.493ZM19.2695 152.919C20.4623 152.621 61.0885 145.819 64.8089 144.84C66.8395 146.728 76.0127 163.044 76.6091 164.436C68.4583 165.856 20.1073 173.935 12.9931 175.015C13.0925 170.712 17.5087 155.674 19.2695 152.919Z" fill="#9747FF"/>
<path d="M24.6086 167.645C25.844 167.46 52.0572 164.308 61.5286 161.738C61.587 161.723 61.637 161.685 61.6676 161.633C61.6982 161.581 61.707 161.519 61.6919 161.461C61.6768 161.403 61.6392 161.353 61.5873 161.322C61.5354 161.291 61.4734 161.283 61.415 161.298C59.5548 161.681 36.8632 164.706 24.5802 167.205C24.5463 167.199 24.5114 167.2 24.4782 167.21C24.445 167.219 24.4144 167.236 24.3887 167.259C24.363 167.282 24.3428 167.31 24.3298 167.342C24.3167 167.374 24.311 167.409 24.3133 167.443C24.3155 167.477 24.3255 167.511 24.3426 167.541C24.3596 167.571 24.3833 167.597 24.4118 167.616C24.4402 167.635 24.4727 167.648 24.5068 167.653C24.5409 167.658 24.5757 167.655 24.6086 167.645ZM43.7644 68.8414C43.234 70.0395 42.7879 71.2732 42.4296 72.5334C42.4085 72.7357 42.4643 72.9384 42.5858 73.1014C44.02 75.2598 58.717 91.8312 62.551 94.16C63.0764 94.4866 63.7012 94.7138 64.0846 94.2452C66.8698 90.7796 70.5045 88.0939 74.6352 86.4494C77.9973 85.2599 81.5221 84.5942 85.0864 84.4756C87.9264 84.22 88.4234 83.936 89.5168 82.0758C90.8066 79.6277 92.5179 77.4262 94.572 75.5722C97.1912 73.2821 100.098 71.3439 103.22 69.807C103.36 69.7274 103.47 69.6031 103.532 69.4539C103.594 69.3046 103.604 69.1391 103.561 68.9834C103.081 67.7619 102.446 66.607 101.672 65.547C102.183 65.3766 102.751 65.2204 102.751 64.7092C102.751 63.2892 90.3688 45.3688 86.9324 41.9892C86.5774 41.6342 86.0662 41.1656 85.5976 41.194C78.4976 41.5916 71.5822 48.294 67.5778 54.1444C62.9912 53.974 60.0234 53.5622 54.7978 55.7632C51.1088 57.3291 47.7828 59.6399 45.0282 62.5508C44.6022 62.991 41.7054 66.0582 41.6628 66.2996C41.6202 66.541 41.7054 66.541 43.7644 68.8414ZM100.564 68.4438C94.643 69.452 90.8658 74.3794 88.0826 79.7328C86.8472 82.1184 86.9608 82.232 85.6544 82.2036C83.37 82.0742 81.0784 82.1598 78.81 82.4592C77.1462 82.7079 75.5103 83.1169 73.9252 83.6804C70.3184 84.9584 66.1862 89.048 63.9852 92.0868C63.9385 92.1493 63.879 92.2012 63.8108 92.2392C63.7426 92.2771 63.6671 92.3002 63.5893 92.3069C63.5116 92.3136 63.4332 92.3037 63.3595 92.2781C63.2858 92.2524 63.2184 92.2114 63.1616 92.1578C58.5466 87.4008 50.3816 79.0512 46.2778 74.2516C46.079 74.0386 46.4198 73.7262 46.6186 73.9534C49.274 76.7934 56.1326 83.5952 63.4882 90.9934C65.9732 87.8268 69.8072 83.9928 73.5986 82.658C75.6661 81.9205 77.8174 81.4435 80.0028 81.238C82.0494 81.0826 84.1048 81.0826 86.1514 81.238C86.9892 80.2724 91.1356 69.31 100.536 68.0888C100.564 68.109 100.586 68.1352 100.602 68.1653C100.618 68.1954 100.627 68.2288 100.629 68.2629C100.63 68.297 100.624 68.331 100.61 68.3623C100.596 68.3936 100.576 68.4215 100.55 68.4438H100.564ZM85.5834 42.3442C88.4234 44.3322 99.9822 61.4432 101.487 64.4394C98.8756 65.267 96.3541 66.3565 93.9614 67.6912C91.6956 68.8271 89.7117 70.4541 88.1543 72.4537C86.5969 74.4533 85.5051 76.7751 84.9586 79.25C79.8608 70.9572 72.7466 61.8266 68.018 55.11C68.302 54.9254 76.2824 42.898 85.5834 42.3442ZM55.1102 56.5442C60.2932 54.4568 63.1616 54.9396 67.45 55.1242C71.71 62.3946 79.3638 72.647 84.4048 79.3636C79.7521 78.2627 74.8561 78.9361 70.6734 81.2522C68.16 82.6722 65.0928 86.0802 63.2042 88.196C60.4778 86.0092 44.7442 69.2532 42.2166 66.4132C46.1074 62.0112 49.7 58.7026 55.1102 56.4874V56.5442ZM29.1242 92.6548C28.7733 92.4085 28.3583 92.2694 27.9299 92.2542C27.5014 92.2391 27.0777 92.3487 26.7102 92.5696C26.4426 92.689 26.2012 92.8599 25.9996 93.0725C25.798 93.2852 25.6404 93.5355 25.5355 93.8091C25.4307 94.0827 25.3808 94.3743 25.3886 94.6672C25.3965 94.9601 25.462 95.2485 25.5813 95.5161C25.7007 95.7837 25.8715 96.0252 26.0842 96.2267C26.2969 96.4283 26.5472 96.586 26.8208 96.6908C27.0944 96.7956 27.3859 96.8456 27.6788 96.8377C27.9717 96.8298 28.2602 96.7644 28.5278 96.645C28.9553 96.5516 29.3443 96.3304 29.6432 96.0108C29.9421 95.6912 30.1368 95.2883 30.2014 94.8555C30.2661 94.4227 30.1978 93.9805 30.0054 93.5875C29.813 93.1945 29.5057 92.8692 29.1242 92.6548ZM28.187 95.4948C27.193 95.8072 26.5966 95.4948 26.3552 95.012C25.9008 94.0038 26.4688 92.456 27.9456 92.9104C28.9822 93.2938 29.82 95.0404 28.187 95.5658V95.4948ZM101.331 27.6756C101.743 28.5134 103.66 28.201 104.498 27.9312C104.938 27.7892 105.222 27.633 105.265 27.207C105.392 26.142 105.534 16.912 105.052 16.0174C105.002 15.9236 104.925 15.8466 104.832 15.7961C104.738 15.7456 104.632 15.7238 104.526 15.7334C103.011 15.7292 101.504 15.9493 100.053 16.3866C99.471 16.7416 100.82 26.7384 101.331 27.6756ZM100.351 16.7274C101.663 16.5398 102.99 16.478 104.313 16.5428C104.398 17.5936 104.171 26.6958 104.157 26.8378C103.557 27.0528 102.917 27.1305 102.283 27.065C102.183 26.7384 102.013 25.858 101.8 24.7504C101.174 22.1039 100.691 19.4257 100.351 16.7274ZM27.7468 80.67C27.8831 80.7398 28.0339 80.7762 28.187 80.7762C28.3401 80.7762 28.491 80.7398 28.6272 80.67C29.1758 80.3316 29.6109 79.8372 29.8768 79.25C29.9129 79.1561 29.9241 79.0543 29.9091 78.9548C29.8942 78.8552 29.8537 78.7613 29.7916 78.682C29.11 77.8726 21.6692 69.2532 20.7604 69.7928C19.6446 70.5152 18.5859 71.3222 17.5938 72.2068C17.5538 72.2426 17.5218 72.2863 17.4998 72.3353C17.4778 72.3842 17.4663 72.4372 17.466 72.4908C17.4376 73.2292 25.702 79.8464 27.7468 80.67ZM20.9308 70.162C21.9674 70.9146 25.4606 75.2314 28.6982 79.0512C28.5589 79.2705 28.3865 79.467 28.187 79.6334C24.7831 77.4548 21.5331 75.0446 18.46 72.4198C19.2304 71.611 20.056 70.8566 20.9308 70.162ZM43.239 38.8368C43.5514 33.3272 46.7606 30.7712 50.1118 30.118C49.1604 33.6112 49.3166 38.1552 52.7672 38.7374C54.4144 39.0072 55.2238 38.1552 56.4166 37.1612C61.5144 32.9012 57.3964 28.6412 51.6454 28.9394C53.7896 23.0606 58.7454 18.2752 65.32 18.119C65.3803 18.119 65.4381 18.0951 65.4807 18.0525C65.5233 18.0099 65.5472 17.9521 65.5472 17.8918C65.5472 17.8316 65.5233 17.7738 65.4807 17.7312C65.4381 17.6886 65.3803 17.6646 65.32 17.6646C58.22 17.5226 52.6394 22.6346 50.4384 29.0246C46.647 29.6778 42.884 32.5178 42.7846 38.7516C42.779 38.7815 42.7794 38.8121 42.7856 38.8418C42.7919 38.8715 42.8039 38.8997 42.821 38.9248C42.8382 38.9498 42.8601 38.9712 42.8855 38.9878C42.9109 39.0044 42.9394 39.0158 42.9692 39.0214C42.9991 39.027 43.0297 39.0267 43.0594 39.0204C43.0891 39.0142 43.1173 39.0021 43.1423 38.985C43.1674 38.9679 43.1888 38.946 43.2054 38.9205C43.222 38.8951 43.2334 38.8667 43.239 38.8368ZM51.3188 29.9476C53.4346 29.8056 56.587 30.4588 57.4532 32.3758C57.9502 33.4692 57.4532 34.8182 55.6924 36.295C55.2144 36.7739 54.669 37.1806 54.0736 37.502C51.9436 38.4108 49.5864 35.7838 51.3188 29.9476ZM55.38 230.778C54.0081 230.411 52.5765 230.321 51.1696 230.515C49.7626 230.709 48.4087 231.183 47.1874 231.908C45.9662 232.633 44.9023 233.595 44.0584 234.737C43.2145 235.88 42.6076 237.179 42.2734 238.56C41.6426 241.428 42.1769 244.429 43.7587 246.903C45.3405 249.377 47.8403 251.121 50.7082 251.752C53.5761 252.382 56.5771 251.848 59.051 250.266C61.525 248.685 63.2692 246.185 63.9 243.317C64.1695 241.934 64.1625 240.511 63.8795 239.13C63.5964 237.75 63.043 236.439 62.251 235.273C61.4589 234.108 60.444 233.111 59.2648 232.339C58.0855 231.568 56.7652 231.037 55.38 230.778ZM59.7678 242.351C59.1981 244.624 57.8341 246.617 55.9225 247.971C54.0108 249.326 51.6777 249.951 49.345 249.735C47.2036 248.899 45.4259 247.333 44.3247 245.315C43.2234 243.297 42.8692 240.955 43.3242 238.702C43.8556 236.374 45.2069 234.316 47.1311 232.903C49.0553 231.489 51.4239 230.816 53.8038 231.005C55.9663 231.899 57.7444 233.527 58.8249 235.602C59.9054 237.677 60.2192 240.067 59.711 242.351H59.7678Z" fill="#9747FF"/>
<path d="M74.2944 234.825C73.0582 234.398 71.7333 234.296 70.4462 234.527C69.9127 233.304 69.2561 232.138 68.4866 231.048C69.4096 230.21 71.9372 227.881 71.3266 226.788C69.1535 224.188 66.5736 221.959 63.687 220.185C62.4817 219.51 61.1544 219.08 59.782 218.921C58.8732 219.049 56.7148 222.585 56.232 223.38C55.9196 223.38 54.812 223.025 54.7268 222.982C54.7268 221.96 54.4286 218.268 53.5056 217.842C52.4735 217.462 51.4016 217.2 50.3106 217.061C49.3024 216.905 40.2286 218.566 39.5612 219.787C39.121 220.611 40.1434 223.721 40.4416 224.587C39.6758 225.008 38.9403 225.483 38.2406 226.007C36.8206 227.015 37.204 226.972 36.9484 226.859C36.6395 226.711 36.3085 226.615 35.9686 226.575C34.8343 225.91 33.5043 225.659 32.2056 225.865C30.8992 226.291 27.8178 233.306 27.3208 235.109C27.1582 235.564 27.1142 236.053 27.193 236.529C27.5338 237.466 29.8058 238.219 30.7572 238.517C30.4945 240.344 30.4945 242.199 30.7572 244.027C29.5076 244.367 26.909 245.134 27.051 246.412C27.193 247.69 30.5158 256.125 31.8932 256.792C32.6477 257.214 33.4821 257.474 34.3429 257.555C35.2037 257.635 36.0718 257.535 36.8916 257.261C37.3533 257.03 37.7992 256.77 38.2264 256.48C38.7944 256.906 39.3908 257.289 40.0014 257.659C39.5612 258.752 38.5814 261.194 38.8938 262.302C39.05 262.884 39.5186 263.069 40.1718 263.31C41.9752 263.963 51.688 266.292 53.1648 266.037C53.7186 265.951 54.0168 265.369 54.1872 264.815C54.5027 263.555 54.6883 262.265 54.741 260.967C55.4703 260.895 56.1954 260.786 56.9136 260.641C57.3522 261.412 57.9133 262.108 58.575 262.7C59.2992 263.211 59.9098 262.955 60.7334 262.43C61.131 262.941 61.7274 263.651 62.3664 263.722C63.971 263.907 70.6024 257.659 71.284 256.381C71.852 255.316 69.7788 253.413 68.8558 252.575C69.8543 251.072 70.6381 249.438 71.1846 247.719C72.2088 247.873 73.2453 247.93 74.2802 247.889C74.7488 247.889 75.2884 247.719 75.4872 247.278C76.3534 245.305 76.0978 237.821 75.4872 235.918C75.402 235.365 74.763 234.995 74.2944 234.825ZM74.6352 236.131C75.118 237.977 75.2742 244.95 74.5642 246.753C73.3365 246.874 72.0977 246.817 70.8864 246.583C70.7571 246.56 70.6241 246.588 70.5138 246.659C70.4034 246.729 70.3236 246.839 70.29 246.966C69.7245 248.886 68.8465 250.699 67.6914 252.334C67.6091 252.442 67.572 252.578 67.5879 252.713C67.6038 252.848 67.6714 252.972 67.7766 253.058C68.7729 253.847 69.6194 254.809 70.2758 255.898C69.5658 257.062 64.0136 262.146 62.48 262.572C62.2528 262.572 61.628 261.72 61.4718 261.493C60.9473 260.704 60.473 259.884 60.0518 259.036C59.9903 258.912 59.8849 258.816 59.7562 258.766C59.6275 258.716 59.4847 258.716 59.356 258.766C55.238 260.314 53.676 259.405 53.676 260.428C53.6778 261.958 53.4284 263.479 52.9376 264.929C49.6005 264.566 46.3143 263.833 43.1396 262.742C43.2929 261.226 43.7161 259.75 44.3892 258.383C44.8152 257.431 43.1112 257.701 39.9304 254.464C39.828 254.369 39.6936 254.316 39.5541 254.316C39.4146 254.316 39.2802 254.369 39.1778 254.464C37.7578 255.628 35.9118 256.764 35.5426 256.579C34.8184 256.224 31.4814 248.656 31.2826 247.122C32.2926 246.418 33.4391 245.935 34.648 245.702C34.7769 245.666 34.8883 245.584 34.9614 245.471C35.0345 245.359 35.0644 245.224 35.0456 245.092C34.6976 243.081 34.6976 241.025 35.0456 239.014C35.0673 238.89 35.0413 238.763 34.9728 238.657C34.9043 238.552 34.7984 238.476 34.6764 238.446C33.6059 238.165 32.5753 237.75 31.6092 237.211C31.2968 236.983 31.3252 236.998 31.3536 236.756C32.2727 233.441 33.7467 230.306 35.713 227.484C36.4798 227.271 38.553 228.79 39.263 229.33C39.3372 229.402 39.4365 229.442 39.5399 229.442C39.6433 229.442 39.7426 229.402 39.8168 229.33C40.4693 228.653 41.1718 228.026 41.9184 227.455C44.0768 225.822 44.659 226.035 44.4744 225.467C43.8216 224.042 43.455 222.503 43.3952 220.937C43.6153 220.754 43.865 220.61 44.1336 220.511C45.4593 219.987 46.8214 219.56 48.209 219.233C49.891 218.765 51.6197 218.484 53.3636 218.396C53.6618 218.523 53.9316 219.816 54.0026 220.213C54.528 223.053 54.173 223.635 54.5848 223.678C58.6318 224.076 59.4554 225.197 59.7394 224.7C60.5268 223.323 61.4446 222.025 62.48 220.824C62.7782 220.526 62.764 220.384 63.6586 220.895C66.3312 222.641 68.7248 224.781 70.7586 227.242C70.9716 227.611 69.1256 229.571 67.7766 230.721C67.308 231.133 67.9754 231.318 69.1966 233.646C70.4178 235.975 70.1338 236.628 70.787 236.486C72.0462 236.185 73.3421 236.065 74.6352 236.131ZM271.717 117.476C268.74 116.26 265.619 115.435 262.43 115.02C260.101 114.65 257.361 114.281 255.046 113.983C257.276 110.831 263.879 102.85 264.986 100.905C265.299 100.379 264.702 99.641 264.262 99.2008C261.791 96.5596 257.02 95.5656 253.356 94.9976C251.255 94.6568 242.479 93.5776 240.988 94.2876C239.199 95.1396 225.965 115.02 225.567 118.044C225.567 118.555 225.737 118.754 226.234 118.939C228.322 119.706 237.736 120.898 239.838 121.395C236.998 126.365 224.374 143.164 223.139 145.535C222.841 146.132 223.025 146.487 223.38 146.6C224.658 147.108 225.973 147.516 227.314 147.822C227.825 147.978 228.947 147.282 230.58 146.288C237.907 141.886 269.346 121.126 271.76 118.442C271.826 118.379 271.879 118.302 271.913 118.217C271.947 118.132 271.963 118.041 271.959 117.949C271.955 117.858 271.931 117.768 271.889 117.686C271.848 117.605 271.789 117.533 271.717 117.476ZM241.201 134.516C229.131 142.482 225.056 144.811 224.914 144.911C226.859 141.943 238.943 125.386 241.017 121.424C241.053 121.347 241.071 121.264 241.071 121.179C241.071 121.094 241.051 121.011 241.015 120.935C240.978 120.859 240.924 120.791 240.858 120.739C240.793 120.686 240.716 120.648 240.633 120.629C239.213 120.117 228.876 119.01 226.433 118.144C226.746 115.502 239.639 95.5372 241.201 94.742C242.763 93.9468 257.915 95.7502 260.755 97.7808C259.264 100.692 251.028 110.887 249.693 113.259C249.423 113.742 249.338 114.21 249.863 114.338C250.389 114.466 263.737 116.028 266.648 116.979C263.098 119.947 245.177 131.847 241.201 134.459V134.516ZM150.108 47.6974C150.108 47.8252 150.193 47.9814 150.406 48.805C150.462 48.9836 150.585 49.1337 150.749 49.2237C150.913 49.3137 151.106 49.3367 151.287 49.2878C151.468 49.235 151.62 49.1127 151.711 48.9476C151.801 48.7825 151.822 48.5881 151.77 48.4074C151.628 47.8536 151.5 47.385 151.415 47.1578C151.332 47.0018 151.194 46.8823 151.028 46.8225C150.862 46.7627 150.679 46.7669 150.516 46.8343C150.353 46.9017 150.221 47.0274 150.146 47.187C150.07 47.3466 150.057 47.5285 150.108 47.6974Z" fill="#9747FF"/>
</svg>
